<?xml version="1.0" standalone="no"?>
<!DOCTYPE svg PUBLIC "-//W3C//DTD SVG 1.1//EN" "http://www.w3.org/Graphics/SVG/1.1/DTD/svg11.dtd" >
<!--
2013-9-30: Created.
-->
<svg>
<metadata>
Created by iconfont
</metadata>
<defs>

<font id="iconfont" horiz-adv-x="1024" >
  <font-face
    font-family="iconfont"
    font-weight="500"
    font-stretch="normal"
    units-per-em="1024"
    ascent="896"
    descent="-128"
  />
    <missing-glyph />
    
    <glyph glyph-name="x" unicode="x" horiz-adv-x="1001"
d="M281 543q-27 -1 -53 -1h-83q-18 0 -36.5 -6t-32.5 -18.5t-23 -32t-9 -45.5v-76h912v41q0 16 -0.5 30t-0.5 18q0 13 -5 29t-17 29.5t-31.5 22.5t-49.5 9h-133v-97h-438v97zM955 310v-52q0 -23 0.5 -52t0.5 -58t-10.5 -47.5t-26 -30t-33 -16t-31.5 -4.5q-14 -1 -29.5 -0.5
t-29.5 0.5h-32l-45 128h-439l-44 -128h-29h-34q-20 0 -45 1q-25 0 -41 9.5t-25.5 23t-13.5 29.5t-4 30v167h911zM163 247q-12 0 -21 -8.5t-9 -21.5t9 -21.5t21 -8.5q13 0 22 8.5t9 21.5t-9 21.5t-22 8.5zM316 123q-8 -26 -14 -48q-5 -19 -10.5 -37t-7.5 -25t-3 -15t1 -14.5
t9.5 -10.5t21.5 -4h37h67h81h80h64h36q23 0 34 12t2 38q-5 13 -9.5 30.5t-9.5 34.5q-5 19 -11 39h-368zM336 498v228q0 11 2.5 23t10 21.5t20.5 15.5t34 6h188q31 0 51.5 -14.5t20.5 -52.5v-227h-327z" />
    

    
    <glyph glyph-name="rili" unicode="&#58902;" d="M890.12736 666.327808 846.738432 666.327808l0 12.89216c0 38.643712-31.466496 70.234112-69.922816 70.234112l-1.031168 0c-38.458368 0-69.922816-31.5904-69.922816-70.234112l0-12.89216L319.162368 666.327808l0 12.89216c0 38.643712-31.465472 70.234112-69.922816 70.234112l-1.062912 0c-38.45632 0-69.922816-31.5904-69.922816-70.234112l0-12.89216-43.295744 0c-38.458368 0-69.922816-31.622144-69.922816-70.206464l0-671.446016c0-38.644736 31.465472-70.23616 69.922816-70.23616l755.16928 0c38.458368 0 69.922816 31.591424 69.922816 70.23616L960.050176 596.121344C960.050176 634.705664 928.585728 666.327808 890.12736 666.327808zM733.830144 679.220992c0 23.222272 18.792448 42.138624 41.954304 42.138624l1.031168 0c23.130112 0 41.954304-18.917376 41.954304-42.138624l0-124.926976c0-23.22432-18.824192-42.139648-41.954304-42.139648l-1.031168 0c-23.161856 0-41.954304 18.915328-41.954304 42.139648L733.830144 679.220992zM206.22336 679.220992c0 23.222272 18.792448 42.138624 41.954304 42.138624l1.062912 0c23.098368 0 41.954304-18.917376 41.954304-42.138624l0-124.926976c0-23.22432-18.855936-42.139648-41.954304-42.139648l-1.062912 0c-23.161856 0-41.954304 18.915328-41.954304 42.139648L206.22336 679.220992zM890.12736-89.404672l-755.16928 0c-7.584768 0-13.984768 6.524928-13.984768 14.08L120.973312 418.350848l783.137792 0 0-493.67552C904.111104-82.879744 897.712128-89.404672 890.12736-89.404672zM223.755264 317.800192l129.024 0 0-63.488-129.024 0 0 63.488ZM449.035264 317.800192l128 0 0-63.488-128 0 0 63.488ZM673.291264 317.800192l125.952 0 0-63.488-125.952 0 0 63.488ZM223.755264 188.776192l129.024 0 0-62.464-129.024 0 0 62.464ZM449.035264 188.776192l128 0 0-62.464-128 0 0 62.464ZM673.291264 188.776192l125.952 0 0-62.464-125.952 0 0 62.464ZM223.755264 62.824192l129.024 0 0-65.536-129.024 0 0 65.536ZM449.035264 62.824192l128 0 0-65.536-128 0 0 65.536ZM673.291264 62.824192l125.952 0 0-65.536-125.952 0 0 65.536Z"  horiz-adv-x="1024" />

    
    <glyph glyph-name="yonghu" unicode="&#59099;" d="M149.990594-146.716134c-0.533143 7.267521-0.808412 14.59644-0.808412 21.982664 0 181.139523 162.758897 328.506872 362.817306 328.506872 200.057385 0 362.818329-147.368372 362.818329-328.506872 0-7.387247-0.276293-14.716166-0.808412-21.982664l61.743226 0c0.436952 7.29515 0.663102 14.623046 0.663102 21.982664 0 53.088102-11.375072 104.572684-33.81413 153.023162-21.564132 46.563502-52.374858 88.326675-91.572602 124.129088-62.09115 56.70856-139.940193 93.641727-224.406956 107.349937 100.768031 31.966039 174.040848 126.878712 174.040848 238.695381 0 137.967258-111.549585 250.212692-248.663406 250.212692-137.112798 0-248.663406-112.245434-248.663406-250.212692 0-111.816668 73.27384-206.729342 174.040848-238.695381-84.466764-13.70821-162.316829-50.641377-224.406956-107.349937-39.198767-35.801391-70.00847-77.565587-91.572602-124.129088-22.437012-48.450479-33.81413-99.93506-33.81413-153.023162 0-7.359618 0.227174-14.688537 0.663102-21.982664L149.990594-146.716134zM326.770833 498.465121c0 102.771665 83.093487 186.381921 185.228655 186.381921s185.228655-83.610256 185.228655-186.381921c0-102.772688-83.092463-186.382944-185.228655-186.382944S326.770833 395.692433 326.770833 498.465121z"  horiz-adv-x="1024" />

    
    <glyph glyph-name="weixin" unicode="&#58959;" d="M498.816 466.944c26.336 0 43.936 17.632 43.936 43.904 0 26.56-17.568 43.744-43.936 43.744s-52.832-17.184-52.832-43.744C446.016 484.576 472.48 466.944 498.816 466.944zM253.088 554.592c-26.336 0-52.96-17.184-52.96-43.744 0-26.272 26.624-43.904 52.96-43.904 26.24 0 43.808 17.632 43.808 43.904C296.864 537.408 279.328 554.592 253.088 554.592zM1024 185.888c0 138.88-128.832 257.216-286.976 269.536 0.224 1.728 0.32 3.52-0.064 5.312-31.712 147.84-190.688 259.296-369.824 259.296C164.704 720.032 0 578.88 0 405.376c0-93.088 47.52-176.96 137.568-243.104l-31.392-94.368c-2.016-6.144-0.192-12.896 4.704-17.152 2.976-2.56 6.72-3.904 10.496-3.904 2.432 0 4.896 0.576 7.168 1.696L246.4 107.52l14.528-2.944c36.288-7.456 67.616-13.92 106.208-13.92 11.36 0 22.88 0.512 34.176 1.472 4.576 0.384 8.448 2.688 11.072 6.016 42.496-106.336 159.616-183.104 297.44-183.104 35.296 0 71.04 8.512 103.104 16.544l90.848-49.664c2.4-1.312 5.056-1.984 7.68-1.984 3.584 0 7.168 1.216 10.048 3.552 5.056 4.096 7.136 10.848 5.248 17.024l-23.2 77.152C981.344 39.136 1024 112.672 1024 185.888zM398.592 124.032c-10.4-0.896-20.96-1.344-31.424-1.344-35.328 0-65.216 6.112-99.776 13.248L247.296 140c-3.456 0.736-7.104 0.256-10.272-1.376l-88.288-44.192 22.944 68.928c2.24 6.752-0.224 14.112-6.016 18.176C76.96 243.36 32 318.688 32 405.376c0 155.84 150.336 282.656 335.136 282.656 163.36 0 308-99.392 337.856-231.584-171.296-2.24-309.888-122.656-309.888-270.56 0-21.504 3.264-42.336 8.768-62.432C402.208 123.872 400.448 124.192 398.592 124.032zM875.456-3.552c-5.344-4.032-7.616-10.976-5.696-17.376l15.136-50.336-62.112 33.984c-2.368 1.312-5.024 1.984-7.68 1.984-1.312 0-2.624-0.16-3.904-0.512-33.312-8.416-67.776-17.088-101.344-17.088-155.904 0-282.72 107.136-282.72 238.816 0 131.68 126.816 238.784 282.72 238.784 152.928 0 282.144-109.344 282.144-238.784C992 120.256 950.624 52.96 875.456-3.552zM612.992 300.032c-17.568 0-35.136-17.696-35.136-35.232 0-17.664 17.568-35.104 35.136-35.104 26.4 0 43.84 17.44 43.84 35.104C656.832 282.368 639.392 300.032 612.992 300.032zM806.016 300.032c-17.312 0-34.88-17.696-34.88-35.232 0-17.664 17.568-35.104 34.88-35.104 26.304 0 44.064 17.44 44.064 35.104C850.08 282.368 832.352 300.032 806.016 300.032z"  horiz-adv-x="1024" />

    
    <glyph glyph-name="dianpu" unicode="&#58911;" d="M880.64 568.8 140.8 568.8 64 367.84c0-60.16 49.92-110.08 111.36-110.08s112.64 48.64 112.64 110.08c0-60.16 49.92-110.08 111.36-110.08s112.64 48.64 112.64 110.08c0-60.16 49.92-110.08 111.36-110.08s111.36 48.64 111.36 110.08c0-60.16 49.92-110.08 112.64-110.08 61.44 0 112.64 48.64 112.64 110.08L880.64 568.8zM819.2 223.2l0-256L204.8-32.8 204.8 223.2c0 0-21.76 0-25.6 0-8.96 0-38.4 0-38.4 0l0-268.8c0-23.04 25.6-51.2 48.64-51.2l643.84 0c23.04 0 48.64 28.16 48.64 51.2L881.92 223.2l-51.2 0C828.16 223.2 819.2 223.2 819.2 223.2zM880.64 570.08 880.64 570.08 883.2 568.8 880.64 570.08zM192 620l640 0c21.76 0 38.4 16.64 38.4 38.4s-16.64 38.4-38.4 38.4L192 696.8c-21.76 0-38.4-16.64-38.4-38.4S170.24 620 192 620z"  horiz-adv-x="1024" />

    
    <glyph glyph-name="dianhua" unicode="&#58910;" d="M901.654023-27.769069c-0.818645-1.174756-85.435835-117.976972-133.611044-117.987205l-1.133823 0.016373c-137.527237 4.379751-298.531164 137.587612-409.443229 248.555959C246.548744 213.785429 113.44526 374.838476 109.066533 511.905224c-1.564635 48.776913 116.700909 134.538159 117.892037 135.376247 27.78481 19.342534 65.262376 15.481599 80.709183-5.936199 9.18929-12.720719 98.343819-147.941424 108.157325-163.40972 10.397814-16.398482 8.955976-40.72554-3.889587-65.066925-6.785543-12.93766-29.091572-52.178383-40.042995-71.393004 11.967566-16.995069 42.659589-57.088206 104.875582-119.311363 62.621223-62.642712 102.348016-93.095281 119.239731-104.97382 19.200294 10.971889 58.44204 33.3035 71.421656 40.122813 23.599488 12.45466 48.234561 14.110369 64.696488 4.036943 16.503882-10.083659 151.11572-99.626022 163.40972-108.260679C915.771555 38.901377 923.864884 3.95547 901.654023-27.769069zM872.506169 20.331439c-10.227945 7.167237-145.091516 96.964402-161.2618 106.842377-0.466628 0.294712-1.976004 0.784876-4.589528 0.784876-5.733585 0-13.237489-2.222621-20.573571-6.093788-16.45988-8.634658-80.253812-45.188178-80.903611-45.558615l-10.064216-5.777587-10.033517 5.885034c-1.896186 1.122567-47.684022 28.444842-136.62468 117.430526-88.978521 88.989777-116.232235 134.791939-117.347638 136.697335l-5.864568 10.015098 5.746888 10.07138c0.375553 0.633427 36.913724 64.478524 45.499263 80.880075 7.311523 13.877055 6.587022 23.281239 5.531993 24.963555-9.307993 14.668071-98.226139 149.555178-106.810654 161.426553-0.410346 0.460488-3.244904 2.425236-8.620331 2.425236-3.75451 0-9.719362-1.016143-16.71673-5.884011-36.523845-25.541723-98.930173-84.004229-100.806917-101.125165 3.967358-124.110669 130.913609-276.324396 236.70505-382.180306C491.586576 25.280148 643.734812-101.74592 767.668449-105.682579l0.1361-0.033769c17.072841 1.907443 75.490322 64.336284 101.041254 100.899014C878.173239 8.520439 874.362446 18.769874 872.506169 20.331439zM649.84088 575.03503c-21.635763 21.349237-50.393737 33.121352-80.983429 33.121352-30.583552 0-59.33948-11.772115-80.966033-33.150004l-24.591071 24.303522c28.190039 27.849278 65.677838 43.201941 105.557104 43.201941 39.878243 0 77.372182-15.352663 105.570407-43.201941 28.196179-27.859511 43.724851-64.905242 43.724851-104.284111 0-39.399335-15.537881-76.429717-43.742247-104.273878l-24.588001 24.27794c21.63167 21.37789 33.555234 49.768497 33.555234 80.021521C683.376671 525.233787 671.464363 553.65714 649.84088 575.03503zM747.316935 312.04943l-24.588001 24.305569c42.014906 41.49609 65.150836 96.658434 65.160045 155.363464 0 58.672284-23.131837 113.864304-65.132416 155.335834-42.002626 41.497113-97.854679 64.345494-157.260673 64.345494-59.398832 0-115.241674-22.86066-157.235091-64.35982l-24.589025 24.300452c48.555879 47.979758 113.1265 74.41585 181.824115 74.41585 68.695568 0 133.276423-26.436092 181.848675-74.41585 48.575322-47.973618 75.319429-111.776759 75.319429-179.62196C822.653761 423.842563 795.90249 360.055794 747.316935 312.04943z"  horiz-adv-x="1024" />

    
    <glyph glyph-name="liaotian" unicode="&#58899;" d="M511.556189-152.200726c-95.004865 0-186.860046 24.363177-266.439887 70.578041L37.170058-141.050396l47.788846 210.523102C39.297944 139.390189 15.232361 218.756726 15.232361 299.760892c0 249.225857 222.650504 451.98226 496.323827 451.98226 273.654401 0 496.282543-202.756404 496.282543-451.98226C1007.840452 50.557398 785.21059-152.200726 511.556189-152.200726zM252.96901-22.724795l10.214541-6.256363c73.364763-44.979761 159.262895-68.747749 248.374358-68.747749 243.609407 0 441.810724 178.307217 441.810724 397.4898S755.165596 697.271334 511.556189 697.271334c-243.63005 0-441.853729-178.327859-441.853729-397.510442 0-73.791372 23.107432-146.179062 66.833168-209.372289l6.808547-9.853299-32.683779-143.922161L252.96901-22.724795zM405.339067 298.420857c0-29.214138-23.681978-52.875474-52.896116-52.875474-29.214138 0-52.896116 23.661336-52.896116 52.875474 0 29.193495 23.681978 52.875474 52.896116 52.875474C381.657089 351.296331 405.339067 327.614353 405.339067 298.420857zM588.965139 298.420857c0-29.214138-23.702621-52.875474-52.896116-52.875474-29.23478 0-52.896116 23.661336-52.896116 52.875474 0 29.193495 23.661336 52.875474 52.896116 52.875474C565.262518 351.296331 588.965139 327.614353 588.965139 298.420857zM772.570568 298.420857c0-29.214138-23.681978-52.896116-52.896116-52.896116s-52.896116 23.683698-52.896116 52.896116 23.681978 52.875474 52.896116 52.875474S772.570568 327.634995 772.570568 298.420857z"  horiz-adv-x="1024" />

    
    <glyph glyph-name="dunpai" unicode="&#59042;" d="M669.40928 432.67072 546.97984 432.67072 546.97984 555.10016c0 19.33312-15.64672 34.97984-34.97984 34.97984-19.26144 0-34.97984-15.64672-34.97984-34.97984l0-122.42944L354.59072 432.67072c-19.26144 0-34.97984-15.64672-34.97984-34.97984 0-19.33312 15.7184-34.97984 34.97984-34.97984l122.42944 0 0-122.42944c0-19.33312 15.7184-34.97984 34.97984-34.97984 19.33312 0 34.97984 15.64672 34.97984 34.97984L546.97984 362.71104l122.42944 0c19.33312 0 34.97984 15.64672 34.97984 34.97984C704.38912 417.024 688.7424 432.67072 669.40928 432.67072zM970.76224 697.47712l0 6.5536 0 34.32448L970.76224 744.5504l0 0.37888L970.76224 751.104c0 19.33312-14.68416 34.97984-32.78848 34.97984-5.19168 0-9.90208-1.536-14.27456-3.82976-13.29152-6.42048-31.63136-27.6992-63.744-42.496-32.27648-14.92992-70.4-23.67488-111.36-23.67488-94.5152 0-174.55104 46.00832-200.37632 108.96384-0.6144 1.46432-1.024 3.01056-1.56672 4.5056-2.2528 5.16096-5.26336 9.90208-9.02144 13.86496-0.13312 0.1024-0.27648 0.17408-0.37888 0.27648-7.95648 8.23296-30.976 22.41536-30.19776 23.26528 0.512 0.54272-23.0912-14.96064-31.04768-23.06048-4.03456-4.096-7.28064-9.02144-9.6256-14.4896-0.37888-1.05472-0.68608-2.11968-1.09568-3.1744-0.1024-0.23552-0.13312-0.512-0.23552-0.74752-25.6512-63.16032-105.728-109.4144-200.47872-109.4144-37.43744 0-72.5504 7.31136-102.95296 19.9168-18.71872 7.75168-35.38944 17.7664-49.94048 29.20448-3.62496 5.12-8.13056 9.32864-13.76256 11.71456-3.72736 1.56672-7.75168 2.59072-12.02176 2.59072-18.10432 0-32.78848-15.64672-32.78848-34.97984l0-17.18272 0-31.80544c-0.03072-0.68608-0.17408-1.15712-0.17408-1.87392l0-225.28c0-14.06976 1.30048-28.96896 3.96288-45.43488 20.91008-131.8912 130.62144-265.8304 234.94656-366.73536 24.1152-23.32672 47.89248-44.88192 70.2976-64.256 6.7584-4.78208 14.52032-7.54688 22.40512-7.10656 9.15456 0.44032 18.176 4.37248 24.832 11.71456 13.49632 14.72512 12.46208 37.57056-2.29376 51.06688l-10.58816 9.70752c-12.63616 11.13088-25.72288 23.16288-38.94272 35.56352-99.47136 93.46048-208.71168 219.78112-227.36896 338.0736-1.97632 12.40064-2.93888 23.23456-2.93888 33.16736L127.24224 565.1456c0 0.27648 0.17408 0.512 0.17408 0.8192l0 69.03808 0 38.63552c3.7888-1.9456 7.03488-4.43392 10.96704-6.21568 6.76864-3.1744 13.80352-5.98016 20.9408-8.64256 33.82272-12.53376 71.26016-19.67104 110.7456-19.67104 101.79584 0 190.43328 46.42816 236.00128 114.6368 0.1024 0 0.2048-0.07168 0.27648-0.07168 0.3072 0 0.58368 0.2048 0.89088 0.2048 45.568-68.32128 134.27712-114.78016 236.11392-114.78016 43.7248 0 84.8896 8.71424 121.40544 23.87968 6.49216 2.70336 12.77952 5.60128 18.92352 8.71424 4.44416 2.22208 8.54016 4.75136 12.77952 7.13728l0-32.24576 0-6.46144 0-74.15808c0-0.64512 0.33792-1.15712 0.33792-1.81248l0-99.98336c0-9.84064-0.95232-20.70528-2.8672-33.20832C867.05152 259.96288 650.61888 71.97696 547.9424-8.6016l-0.4096-0.3072-28.28288-22.0672c-15.85152-12.36992-18.86208-35.25632-6.59456-51.21024 10.69056-14.06976 29.40928-17.28512 44.6464-9.56416 19.53792 14.47936 47.8208 36.20864 80.68096 63.6416 120.64768 100.63872 301.83424 277.51424 329.2672 451.14368 2.63168 16.59904 3.86048 31.42656 3.86048 45.3632l0 225.28C971.10016 694.94784 970.82368 696.20736 970.76224 697.47712z"  horiz-adv-x="1024" />

    
    <glyph glyph-name="shouji1" unicode="&#58980;" d="M750.66417 830.210621 273.089214 830.210621c-49.450249 0-89.545432-39.969317-89.545432-89.187275l0-713.518666c0-49.236378 40.095183-89.188298 89.545432-89.188298l477.574956 0c49.450249 0 89.546456 39.951921 89.546456 89.188298L840.210625 741.023346C840.210625 790.242328 800.115442 830.210621 750.66417 830.210621zM511.850086-2.233622c-32.943296 0-59.686381 26.672476-59.686381 59.507302 0 32.835849 26.742061 59.399855 59.686381 59.399855 32.997532 0 59.703777-26.564006 59.703777-59.399855C571.553862 24.439878 544.847617-2.233622 511.850086-2.233622zM750.66417 205.895603 273.089214 205.895603l0 535.127743 477.574956 0L750.66417 205.895603z"  horiz-adv-x="1024" />

    
    <glyph glyph-name="icon-copy-copy" unicode="&#58905;" d="M577.855 383.989l-131.705-131.706v263.414l131.705-131.706z"  horiz-adv-x="1024" />

    
    <glyph glyph-name="m-industry" unicode="&#59032;" d="M372.719 896h-279.552c-51.388 0-93.167-41.796-93.167-93.167v-279.518c0-51.371 38.963-109.175 90.351-109.175h301.175c51.371 0 90.351 69.069 90.351 120.474v271.036c0 51.371-57.788 90.351-109.158 90.351zM930.833 896h-279.535c-51.388 0-109.175-38.98-109.175-90.351v-271.053c0-51.405 38.963-120.474 90.351-120.474h301.175c51.388 0 90.351 57.805 90.351 109.175l0 279.535c0 51.371-41.796 93.167-93.167 93.167zM391.526 353.86h-301.175c-51.388 0-90.351-57.788-90.351-109.158v-279.535c0-51.371 41.779-93.167 93.167-93.167h279.535c51.371 0 109.158 38.963 109.158 90.351l0 301.175c0.017 51.405-38.963 90.334-90.334 90.334zM933.649 353.86h-301.175c-51.388 0-90.351-38.929-90.351-90.334v-301.175c0-51.388 57.805-90.351 109.175-90.351h279.535c51.371 0 93.167 41.796 93.167 93.167v279.535c0 51.371-38.963 109.158-90.351 109.158z"  horiz-adv-x="1024" />

    
    <glyph glyph-name="101" unicode="&#58886;" d="M959.0272 567.85408c-4.7104 137.5744-119.37792 245.60128-255.5904 240.86016-67.51232-2.37056-129.60256-31.62112-175.00672-82.42176l-18.37568-18.72896-9.84064 10.60864C453.53472 773.6832 384.7168 805.86752 311.99232 805.86752c-136.2688 0-247.17312-111.90784-247.17312-249.56928 0-68.10624 26.79296-131.82464 75.48416-179.36384 0 0 21.51424-23.17312 50.944-54.85568l-14.31552-14.6688c-25.60512-26.28608-25.04192-68.93568 1.24416-95.13472 12.83072-12.68224 29.78816-19.61984 47.65696-19.47136 3.08224 0.03072 5.8112 1.36192 8.80128 1.83808-0.65024-18.93888 5.74976-38.29248 20.48-52.96128 16.30208-16.20992 38.17472-21.66272 58.74176-18.70336-1.39264-19.40992 4.53632-39.17824 19.41504-54.00064 15.85664-15.82592 37.37088-20.95104 57.78944-17.8432-0.79872-19.40992 5.66272-39.2704 20.77696-54.29248 13.7216-13.69088 31.80032-21.09952 50.67776-20.95616 14.22848 0.14848 26.97216 5.66272 38.08256 13.87008l2.46272-2.54976c17.4848-18.49344 40.3968-28.06784 62.35648-28.06784 17.03936 0 33.52064 5.89824 46.08512 17.93024 17.54624 16.89088 22.13888 42.02496 16.896 66.56512 4.44416-0.79872 8.86272-2.8416 13.24544-2.8416 17.8688 0 35.08736 6.36928 48.51712 19.20512 18.25792 17.51552 23.44448 42.76736 18.64192 67.51232 4.7104-0.9472 9.36448-2.69824 14.13632-2.69824 17.69472 0 34.5856 6.13376 47.56992 18.6112 18.31424 17.54624 23.02976 43.56608 17.60256 68.81792 4.7104-0.89088 9.42592-2.96448 14.16704-2.96448 18.14016 0 35.65568 6.4 49.34656 19.44064 13.5424 13.00992 21.27872 31.08864 21.78048 50.88768 0.5632 22.5536-8.41728 45.312-24.65792 62.53056l-1.03936 1.18784 31.03232 31.47264C932.02432 423.99232 961.57184 494.46912 959.0272 567.85408L959.0272 567.85408 959.0272 567.85408zM253.75744 243.59424c-0.14848-0.11776-0.14848-0.29696-0.29696-0.47616l-2.2528-2.37056c-5.89824-6.016-13.69088-9.33376-22.13888-9.42592-8.6528-0.0256-16.83456 3.31776-23.14752 9.51296-12.68224 12.68224-13.04064 33.16224-0.79872 45.75744l87.3984 89.71264c6.10304 6.28224 14.2848 9.42592 22.3744 9.42592 8.23808 0 16.50688-3.2 22.912-9.48224 12.5952-12.53376 13.00992-32.74752 1.03936-45.312L253.75744 243.59424 253.75744 243.59424 253.75744 243.59424zM328.82688 165.9136c-12.74368-13.09696-34.52928-12.416-48.57344 1.54112-13.95712 13.83936-14.99648 35.41504-2.69824 48.51712l88.58624 91.04384c0.11776 0.08704 0.14848 0.23552 0.23552 0.35328l2.48832 2.54976c5.8112 5.98528 13.7216 9.30304 22.43584 9.36448 9.69216 0.08704 18.9696-3.79392 26.14272-10.96704 14.04928-13.93152 15.08352-35.92192 2.30912-49.01888L328.82688 165.9136 328.82688 165.9136 328.82688 165.9136zM409.55904 97.33632c-0.1792-0.14848-0.1792-0.41472-0.35328-0.59392l-2.33984-2.33984c-13.24544-13.57312-35.1488-13.51168-48.83968 0.08704-13.69088 13.57312-14.08 35.68128-0.89088 49.2288l93.4144 95.90272c6.31296 6.43072 14.73024 10.04544 23.76704 10.1376 9.33888 0.08704 18.19648-3.5584 24.9856-10.22464 6.7584-6.66624 10.42944-15.616 10.5216-25.0112 0.08704-8.94976-3.31776-17.31072-9.33376-23.76704L409.55904 97.33632 409.55904 97.33632 409.55904 97.33632zM487.44448 22.38464c-5.95968-6.07744-14.01856-9.3952-22.76352-9.48224-9.84064-0.05632-19.20512 3.88096-26.46528 11.05408-14.01856 13.96224-15.17568 35.8912-2.72896 49.19808l88.85248 91.28448c0.1792 0.11776 0.2048 0.26624 0.3584 0.44544l2.4576 2.48832c5.89824 6.07744 13.93152 9.42592 22.67136 9.51296 9.80992 0.08704 19.20512-3.81952 26.496-11.11552 7.29088-7.17312 11.35104-16.65536 11.41248-26.55744 0.08704-8.80128-3.14368-17.03936-9.0112-23.08608L487.44448 22.38464 487.44448 22.38464 487.44448 22.38464zM589.48608 0.512c-6.49216-6.25152-15.05792-9.24672-24.21248-9.24672-13.30688 0-27.85792 6.34368-39.12192 18.31424 0 0-1.24416 1.3312-1.72032 1.83808l56.04352 57.64608c0.384-0.41472 0.23552-0.97792 0.68096-1.42336l2.66752-2.816C602.78784 44.55424 605.3376 15.7184 589.48608 0.512L589.48608 0.512 589.48608 0.512zM822.54848 255.62624c-16.59392-15.88736-45.58336-12.92288-64.6656 6.54848-0.08704 0.14848-0.23552 0.2048-0.32768 0.29696l-104.05376 106.30656c-6.10304 6.1952-15.9744 6.34368-22.1696 0.11776-6.07744-6.10816-6.22592-16.09728-0.08704-22.28736l106.83904-109.27104c19.08736-20.36224 21.39648-49.67424 4.98176-65.408-14.99648-14.43328-40.89856-12.44672-60.19584 4.59264-0.61952 0.5632-1.27488 0.7424-1.98656 1.15712l-103.81824 106.07104c-6.10304 6.25152-15.9744 6.28224-22.20032 0.17408-6.10304-6.13376-6.1952-16.1792-0.08704-22.3744l107.10528-109.41952c0.35328-0.32768 0.82944-0.47104 1.06496-0.79872 15.85664-19.5584 16.7424-46.4128 1.27488-61.14304-16.06144-15.38048-44.24704-12.53376-62.85824 6.49216-0.53248 0.65024-1.42336 0.41472-2.01728 0.91648l3.49696 3.61472c11.97056 12.32896 18.46272 28.77952 18.31424 46.4128-0.1792 18.70336-7.7056 36.39296-21.16096 49.8176-13.3376 13.21984-30.73024 20.48-49.10592 20.48l-0.59392 0c-2.93376-0.03072-5.33504-1.24416-8.0896-1.60256 0.08704 1.41824 0.79872 2.75456 0.79872 4.1472-0.14848 18.048-7.29088 35.00032-20.096 47.62624-12.74368 12.71296-29.60384 19.61984-47.41632 19.50208-4.35712-0.06144-8.18176-1.6896-12.29824-2.54976 0.384 18.2272-6.04672 36.78208-20.21376 50.79552-13.18912 13.10208-30.32064 20.2752-48.3072 20.2752l-0.5632 0c-2.66752 0-5.03808-1.18784-7.61856-1.5104 0.9216 18.19648-4.98176 36.68992-18.9696 50.59072-25.7536 25.5744-67.12832 25.45664-92.288-0.29696l-56.72448-58.2656-49.4336 53.376c-42.14272 41.19552-65.024 95.54944-65.024 153.69728 0 117.50912 94.65856 213.05856 211.01056 213.05856 61.99808 0 120.77056-27.53536 160.95744-75.51488l10.93632-11.76576c0 0-59.60192-59.42272-78.44864-80.37376-52.5056-58.40896-74.6752-125.24032-18.74944-178.37568 49.08032-46.64832 128.29696-15.88736 191.7184 38.97344 29.46048 25.48736 57.76384 57.91232 57.76384 57.91232l179.27168-195.57376c10.28608-10.84416 15.9744-25.04192 15.5904-38.79424C833.89952 272.31232 829.7216 262.5024 822.54848 255.62624L822.54848 255.62624 822.54848 255.62624zM848.56832 404.4032c0 0-11.76576-11.88352-29.93152-30.34624l-17.39776 18.52416-161.40288 178.88768c0 0-35.11808-43.47904-83.2768-84.73088-57.91232-49.6128-114.30912-65.94048-146.34496-33.19296-26.58304 27.17696-12.26752 71.86944 14.31552 107.136 25.22112 33.52064 129.95584 138.73152 129.95584 138.73152 38.61504 43.26912 90.7776 67.80928 147.44064 69.82656 2.432 0.05632 4.85888 0.08704 7.29088 0.08704 111.19616 0 203.57632-89.32352 207.45728-202.4192C918.77888 505.28768 893.94176 446.01344 848.56832 404.4032L848.56832 404.4032 848.56832 404.4032z"  horiz-adv-x="1024" />

    
    <glyph glyph-name="30101" unicode="&#58887;" d="M951.59296 118.08768c-23.23456-54.67648-65.23904-101.11488-117.2992-129.85344-54.85568-30.61248-120.6016-41.14432-182.272-29.15328-58.7264 11.12576-113.34144 42.36288-152.58112 87.40352-40.58112 45.99296-64.52736 106.17344-66.75968 167.42912-2.67776 63.75424 18.3552 128.128 58.10176 178.048 47.03232 60.00128 120.51456 98.17088 196.70016 102.12864 62.20288 3.74784 125.41952-14.96064 175.54944-51.91168 48.19456-35.16416 84.0704-86.77888 100.16768-144.22016C980.096 239.01696 975.90272 174.40256 951.59296 118.08768L951.59296 118.08768zM787.9168 332.60544c-6.87104 5.44256-16.59904 3.95776-21.74464-3.24096l-71.10144-99.51232-3.89632 0-71.13216 99.51232c-5.11488 7.19872-14.8736 8.68864-21.77536 3.24096-6.84032-5.41184-8.23808-15.64672-3.06176-22.85056l57.088-79.90784-29.12256 0c-8.59648 0-15.55968-7.28576-15.55968-16.27136 0-9.0112 6.9632-16.3328 15.55968-16.3328l52.41856 0 1.99168-2.70848 0-21.74464-54.41024 0c-8.59648 0-15.55968-7.31648-15.55968-16.3328 0-8.9856 6.9632-16.27648 15.55968-16.27648l54.41024 0 0-57.088c0-9.0112 6.93248-16.3328 15.52896-16.3328 8.56576 0 15.55968 7.31648 15.55968 16.3328l0 57.088 54.3488 0c8.59648 0 15.55968 7.29088 15.55968 16.27648 0 9.0112-6.9632 16.3328-15.55968 16.3328l-54.3488 0 0 21.74464 1.93536 2.70848 52.41856 0c8.59648 0 15.55968 7.31648 15.55968 16.3328 0 8.9856-6.9632 16.27136-15.55968 16.27136l-29.12256 0L791.04 309.76C796.15488 316.95872 794.78784 327.1936 787.9168 332.60544L787.9168 332.60544zM869.21728 504.4992c-0.06144 19.15904 0.11776 38.31808-0.08704 57.47712-15.20128-11.9296-31.3856-22.64064-48.49152-31.65184-3.18464-1.93536-6.784-0.29696-9.93792 0.77312-25.61536 9.25184-52.56704 14.06976-79.54944 16.98816 36.11648 11.9296 72.55552 25.78944 102.57408 49.77152 18.7392 14.99136 35.90656 36.23424 35.49184 61.42976-0.29696 20.82816-12.88192 39.15264-27.69408 52.83328-42.3936 37.248-98.14016 54.29248-152.10496 67.05152-69.61152 15.34976-141.27616 20.3776-212.46464 17.90976-65.03424-2.59072-130.24256-11.24352-192.50688-30.69952-31.7696-10.20416-63.1552-23.1168-90.3168-42.80832-21.2992-15.5904-41.97376-38.1696-41.62048-66.19136 0.7168-28.20096 22.016-50.304 43.72992-65.77664 27.66848-19.51232 59.43808-32.27648 91.5968-42.36288 91.62752-27.66336 188.48768-33.67424 283.65824-28.59008-29.69088-13.74208-57.8304-31.15008-82.2272-53.01248-3.77856-3.74784-9.40032-2.3808-14.16192-2.28864-68.15744 3.00544-136.34048 13.2096-201.31328 34.45248-43.25376 14.3104-85.41184 33.64352-121.22624 62.17728-0.14848-22.78912-0.06144-45.60384-0.03072-68.39296 0.23552-19.72224 11.63264-37.2736 25.344-50.60096 21.36064-20.43904 48.04608-34.21184 75.20768-45.27616 49.77152-19.84512 102.75328-30.40256 155.8272-36.85888-7.82336-16.5376-14.10048-33.792-19.03616-51.4048-83.74272 12.64128-169.4208 35.93728-237.30688 88.73984-0.14848-22.19008-0.06144-44.38528-0.06144-66.58048 0.26624-19.48672 11.39712-36.9152 24.92928-50.15552 20.52608-19.87072 46.22848-33.46432 72.40704-44.416 41.23136-16.86528 84.87424-27.1616 128.81408-34.03264 1.13152-18.5344 3.98848-36.92032 7.97184-55.0656-82.64192 12.79488-167.10144 36.11648-234.06592 88.26368-0.1792-21.59616-0.03072-43.19744-0.08704-64.76288 0.32768-20.3776 12.40576-38.40512 26.8032-51.968 23.05536-21.39136 51.82464-35.49184 80.9472-46.70464 55.69024-20.9152 114.83136-31.26784 173.94176-36.56192 2.7648-0.1792 4.43392-2.64704 5.94944-4.66944 13.47584-19.24608 29.7472-36.41344 46.88384-52.44928-69.79072 1.90464-139.6736 11.71968-206.39744 32.57344-50.6624 16.27136-100.9408 38.61504-140.20608 75.32544-22.99904 21.80608-41.76896 50.99008-42.2144 83.5328-0.06144 164.15744-0.20992 328.30976 0.08704 492.43648 1.33632 29.77792 17.87904 56.5504 38.43584 77.23008 22.9632 22.87616 50.92864 40.09984 80.05632 54.05184 53.4016 25.22624 111.26272 39.95648 169.50784 48.75776 77.43488 11.3664 156.42112 11.99104 234.06592 2.08384 58.07104-7.58784 115.75296-21.00224 169.71776-44.08832 30.13632-13.06112 59.25888-29.21472 84.15744-50.78016 29.3632-24.7808 52.59776-61.1072 49.3824-100.91008-0.09216-61.37344 0.11776-122.77248-0.11776-184.14592C906.61376 479.83616 888.61696 493.28128 869.21728 504.4992L869.21728 504.4992z"  horiz-adv-x="1024" />

    
    <glyph glyph-name="301011" unicode="&#58888;" d="M759.51104-47.48288 407.20896-47.48288l-223.00672 222.86336L184.20224 727.72608c0 44.78464 35.95776 81.13664 80.28672 81.13664l495.02208 0c44.32896 0 80.28672-36.352 80.28672-81.13664l0-694.10304C839.79776-11.1872 803.87072-47.48288 759.51104-47.48288L759.51104-47.48288zM799.6416 727.72608c0 22.36416-17.99168 40.55552-40.12544 40.55552L264.48896 768.2816c-22.13376 0-40.15616-18.19136-40.15616-40.55552l0-533.95968 199.30624 0 0-200.64256 0.05632-0.05632 335.81568 0c22.13376 0 40.12544 18.19136 40.12544 40.55552L799.6416 727.72608 799.6416 727.72608zM736.29696 284.04224l-97.31072-105.28768c-6.66624-7.17824-15.24224-10.7008-23.92576-10.7008-8.6272 0-17.28 3.51744-23.83872 10.7008-13.22496 14.21824-13.22496 37.376 0 51.65056l39.67488 42.91072L405.79072 273.31584c-18.70336 0-33.80224 16.31744-33.80224 36.52608 0 20.17792 15.09888 36.52608 33.80224 36.52608l225.10592 0-39.67488 42.91072c-13.22496 14.24384-13.22496 37.4016 0 51.70688 13.19424 14.27456 34.5088 14.27456 47.76448 0l97.31072-105.344C749.43488 321.41824 749.43488 298.2656 736.29696 284.04224L736.29696 284.04224zM493.19936 424.94976 347.49952 424.94976c-14.56128 0-26.22464 9.27744-26.22464 21.05856L321.27488 545.98656c0 11.776 11.66336 21.57056 26.22464 21.57056l-0.96768 0 0 3.43552c0 52.41344 33.51552 95.58016 73.81504 95.58016s73.81504-43.16672 73.81504-95.58016l0-3.43552-0.96768 0c14.56128 0 26.19392-9.78944 26.19392-21.57056L519.38816 446.0032C519.39328 434.2272 507.75552 424.94976 493.19936 424.94976L493.19936 424.94976zM409.6512 464.13824c0-0.512 0.48128-0.512 1.44896-0.512l19.92192 0c0.99328 0 1.47456 0 1.47456 0.512l-3.88608 33.82784 0 0.48128c4.37248 2.94912 7.29088 8.31488 7.29088 14.21824 0 8.79616-6.8096 16.17408-15.54944 16.17408s-15.54944-7.37792-15.54944-16.17408c0-6.38464 3.4048-11.776 8.25856-14.69952L409.6512 464.13824 409.6512 464.13824zM477.6448 571.4688c0 42.14272-25.73824 76.45184-57.29792 76.45184-31.58528 0-57.29792-34.30912-57.29792-76.45184l0-3.9168L477.6448 567.552 477.6448 571.4688 477.6448 571.4688z"  horiz-adv-x="1024" />

    
    <glyph glyph-name="50101" unicode="&#58890;" d="M622.9248 362.18368l-8.53504-7.36256 10.19904-4.7872c10.04032-4.75136 19.86048-9.85088 29.43488-15.32928 5.13024-2.92864 10.04032-6.07744 15.01184-9.1904-6.7328-15.04768-10.67008-31.26272-11.70944-48.19456-5.98016 4.18816-12.08832 8.18688-18.28864 11.96544-22.72768 13.94176-46.90432 25.40544-72.2432 33.9968l-2.70336 0.94208-2.64704-1.2288c-33.7408-15.39584-69.53472-23.22944-106.30144-23.22944-36.79744 0-72.55552 7.8336-106.33216 23.22944l-2.61632 1.2288-2.7392-0.94208c-136.49408-46.27456-239.39584-175.65184-262.15424-329.64608l-1.57184-10.63936 0.31232-2.76992c0-12.8768-10.48064-23.35744-23.35744-23.35744s-23.35744 10.48064-23.35744 23.38816l0 4.02944 1.5104 11.1104c21.62688 158.1824 115.39968 290.7648 250.8544 354.6368l10.19904 4.7872-8.56064 7.36256c-57.48224 49.39264-90.4704 121.03168-90.4704 196.52096 0 142.75584 115.87072 258.88256 258.28352 258.88256s258.2528-116.12672 258.2528-258.88256C713.3952 483.21536 680.43776 411.60192 622.9248 362.18368L622.9248 362.18368zM455.13728 771.2768c-116.9408 0-212.0704-95.38048-212.0704-212.57728 0-77.15328 41.98912-148.42368 109.57824-185.97376 18.06848-10.04032 37.45792-17.37728 57.64096-21.75488 14.98112-3.24096 30.06464-4.87936 44.85632-4.87936 14.76608 0 29.8752 1.63328 44.85632 4.87936 20.23936 4.40832 39.6288 11.70944 57.64096 21.71904 67.58912 37.58592 109.54752 108.8512 109.54752 186.00448C667.18208 675.89632 572.05248 771.2768 455.13728 771.2768L455.13728 771.2768zM966.10304-43.14112l-288.2816 0c-9.25184 0-16.8704 7.23968-17.31072 16.46592l0 204.32896c0.44032 8.93952 8.05888 16.1792 17.31072 16.1792l11.48928 0L689.31072 263.1168c0 41.96352 19.16928 80.61952 52.59776 105.98912l4.37248 3.21536 4.84864 3.24096c2.39104 1.5104 4.72064 2.86208 7.08096 4.18816l5.632 2.89792 5.4784 2.54976 5.66272 2.3296 7.17824 2.4576 7.33184 2.0736 6.04672 1.35168 2.70336 0.53248 7.68 1.16224 6.51776 0.62976 5.25824 0.256 4.34688 0.09728 3.1488-0.06144 7.87456-0.44032 6.29248-0.66048 5.66272-0.88576 6.64576-1.32096 5.94944-1.5104 7.30112-2.26816 5.4784-2.01728 5.57568-2.36032 7.08096-3.4304 2.51904-1.3568c2.4576-1.35168 4.75136-2.67264 6.9888-4.1216l4.7872-3.1488 2.29888-1.66912c34.4064-25.088 54.92736-65.37728 54.92736-107.71968l0-69.28896 11.52 0c9.22112 0 16.83968-7.23456 17.31072-16.49664l0-204.32896C982.94272-35.90144 975.32416-43.14112 966.10304-43.14112L966.10304-43.14112zM919.92576 263.1168c0 11.20768-1.88928 22.22592-5.60128 32.73728l-2.67264 7.68-0.75776 0c-14.03904 31.22688-43.24864 52.95104-77.09184 57.07264l-3.33312 0.34816c-1.82784 0.15872-3.05664 0.22016-4.2496 0.25088l-4.1216 0.09728-3.58912-0.03072-4.4032-0.256-3.80416-0.37376c-34.59584-4.21888-64.31232-26.69568-78.06976-58.83392l-2.48832-5.50912c-3.87072-10.95168-5.72928-21.97504-5.72928-33.18272l0-69.28384 195.92192 0L919.936 263.1168 919.92576 263.1168zM948.7616 159.0784l-253.62432 0 0-167.46496 253.62432 0L948.7616 159.0784 948.7616 159.0784z"  horiz-adv-x="1024" />

    
    <glyph glyph-name="60101" unicode="&#58891;" d="M724.97664-50.5088 329.68704-50.5088c-35.48672 0-64.13312 27.65312-64.13312 61.38368L265.55392 770.26304c0 33.792 28.6464 61.29664 64.13312 61.29664l395.22816 0c35.60448 0 64.16384-27.50464 64.25088-61.29664l0-759.38816C789.16608-22.85568 760.60672-50.5088 724.97664-50.5088L724.97664-50.5088zM517.69856-25.51296c17.62816 0 31.97952 13.68064 31.97952 30.75072 0 16.80896-14.35136 30.63296-31.97952 30.63296-17.77152 0-32.06656-13.82912-32.06656-30.63296C485.632-11.776 499.95776-25.51296 517.69856-25.51296L517.69856-25.51296zM752.39424 791.36768 302.23872 791.36768l0-728.81152 450.1248 0 0.03072 0L752.39424 791.36768 752.39424 791.36768zM534.0416 224.93696c-65.50528 0-187.37152 101.02272-187.37152 196.51584L346.67008 611.74784l18.62144 0.32256c0.4096 0 42.00448 0.88064 84.9152 18.44736 44.02176 18.00704 72.40704 38.70208 72.66816 38.90688l11.136 8.15616 11.19744-8.15616c0.26112-0.2048 28.67712-20.89984 72.69888-38.90688 42.91072-17.56672 84.5056-18.44736 84.94592-18.44736l18.5344-0.32256 0.08704-190.29504C721.46944 325.95456 599.6032 224.93696 534.0416 224.93696L534.0416 224.93696zM683.58656 575.26784c-18.5344 2.01728-48.64 7.13216-79.91808 19.90656-32.03584 13.12768-56.38656 27.4176-69.62688 35.89632-13.184-8.47872-37.56032-22.76864-69.57056-35.89632-31.30368-12.7744-61.4144-17.88928-79.9744-19.90656l0-153.81504c0-73.83552 106.1376-158.40256 149.54496-158.40256s149.54496 84.56704 149.54496 158.40256L683.58656 575.26784 683.58656 575.26784zM444.44672 418.26816l24.46848 28.99456 51.03616-43.78624 96.90112 112.48128 28.59008-25.02144-121.42592-140.9792L444.44672 418.26816 444.44672 418.26816z"  horiz-adv-x="1024" />

    
    <glyph glyph-name="70101" unicode="&#58892;" d="M757.00224-43.99616c-100.79232 0-182.51776 82.6624-182.51776 184.66304s81.72032 184.69376 182.51776 184.69376c100.79232 0 182.51776-82.69312 182.51776-184.69376S857.79456-43.99616 757.00224-43.99616L757.00224-43.99616zM848.91136 150.08256c-0.26624 5.38624-4.64896 9.59488-10.00448 9.59488l-6.65088 0 0 40.3456c0 24.63232-11.85792 48.08704-31.75424 62.71488l-1.32608 0.9728-2.7648 1.82784c-1.29536 0.82432-2.62144 1.5872-4.03456 2.38592l-1.46944 0.7936-4.09088 2.00192-3.23584 1.3824-3.1488 1.14688-4.20864 1.32608-3.44064 0.88064-3.85536 0.76288-3.26656 0.52736-3.65056 0.384-4.5312 0.23552-1.82272 0.06144-2.50368-0.06144-3.06176-0.14848-3.76832-0.384-4.44416-0.67584-1.5616-0.29696-3.50208-0.7936-4.23936-1.2032-4.1472-1.44384-3.26656-1.35168-3.17952-1.46944-3.26656-1.70496c-1.35168-0.768-2.70848-1.53088-4.09088-2.41664l-2.79552-1.91488-2.52928-1.85344c-19.33312-14.77632-30.39744-37.25824-30.39744-61.68064l0-40.31488-6.65088 0c-5.35552 0-9.73824-4.23936-10.00448-9.4464l0-118.92224c0.26624-5.35552 4.64896-9.56416 10.00448-9.56416l166.656 0c5.35552 0 9.73824 4.20864 10.00448 9.38496L848.91136 150.08256 848.91136 150.08256zM682.25536 139.45856l146.64192 0 0-97.46432-146.64192 0L682.25536 139.45856 682.25536 139.45856zM698.94144 200.02304c0 6.5024 1.09056 12.91776 3.328 19.3024l1.44384 3.20512c7.94624 18.71872 25.13408 31.78496 45.14304 34.2272l2.176 0.23552 2.56 0.14848 2.05824 0.03072 2.38592-0.06144c0.70656-0.03072 1.41312-0.06144 2.44224-0.14848l1.94048-0.2048c19.56864-2.3808 36.45952-15.03744 44.58496-33.22368l0.44032 0 1.53088-4.44416c2.14528-6.14912 3.23584-12.56448 3.23584-19.072l0-40.31488-113.26976 0L698.94144 200.02304 698.94144 200.02304zM299.29984 145.25952l0 27.5712 233.45664 0c-1.1776-9.0624-1.94048-18.21696-2.05824-27.5712L299.29984 145.25952 299.29984 145.25952zM299.29984 272.50688l0 27.60192 294.3744 0c-8.21248-8.59136-15.744-17.80224-22.54336-27.60192L299.29984 272.50688 299.29984 272.50688zM469.92896 554.60864l209.64864 0 0-27.60192L469.92896 527.00672 469.92896 554.60864 469.92896 554.60864zM680.42752 397.16352 475.904 397.16352l0 27.60704 204.52864 0 0-27.60704L680.42752 397.16352zM791.19872 719.4368c0.03072 38.52288-31.104 69.8624-69.36064 69.8624L408.832 789.2992l0-126.336c0-53.20704-42.99776-96.49664-95.8208-96.49664l-123.74528-4.38784 0-508.73344c0-38.54848 29.5168-62.53568 67.77344-62.53568l331.776 0c14.7712-16.48128 31.8976-30.6944 50.85184-42.26048L248.50944-51.45088c-54.76864 0-100.1728 49.61792-100.1728 104.79616L148.33664 589.568c0 0.65024 1.12128-1.64864 1.20832-1.02912 0.08704 0.5888 0.17408 1.12128 0.35328 1.67936 0.61952 2.32448 1.61792 4.56192 3.328 6.2976l229.30944 231.04512c1.70496 1.73568 3.91168 2.7392 6.23616 3.3536 0.5888 0.14848 1.05984 0.26624 1.70496 0.35328 0.52736 0.03072 1.11616 0.29696 1.70496 0.29696l338.19136 0c54.76352 0 99.34848-44.84608 99.34848-100.02944l0-374.68672c-12.3904 4.35712-25.27744 7.59296-38.52288 9.74336L791.19872 719.4368 791.19872 719.4368zM380.0832 775.7056 216.576 603.3408l95.49312 0c37.7856 0 68.00896 28.22144 68.00896 66.24768L380.07808 775.7056 380.0832 775.7056z"  horiz-adv-x="1024" />

    
    <glyph glyph-name="80101" unicode="&#58893;" d="M739.5072-39.99232 284.5184-39.99232c-65.76128 0-119.29088 55.02976-119.29088 122.57792L165.22752 395.81184c0 67.54816 53.53472 122.55232 119.29088 122.55232l7.09632 0L291.61472 599.81824c0 132.12672 94.37184 231.74656 219.46368 231.74656 126.21312 0 221.3376-99.65056 221.30688-231.72096l0-80.81408c1.09568-0.17408 2.16576-0.28672 3.23072-0.6656l3.89632 0c65.76128 0 119.26528-54.99904 119.26528-122.55232l0-313.22624C858.77248 15.03744 805.26848-39.99232 739.5072-39.99232L739.5072-39.99232zM696.13056 599.78752c0 113.26464-77.8752 195.43552-185.05216 195.43552-106.112 0-183.14752-82.17088-183.14752-195.43552l0-80.24064 368.19968 0L696.13056 599.78752 696.13056 599.78752zM822.51776 395.81184c0 47.50336-37.23776 86.17984-82.97984 86.21056l-43.43808 0 0 1.21344L327.92576 483.23584l0-1.21344L284.5184 482.0224c-45.74208 0-82.94912-38.7072-82.94912-86.21056l0-313.22624c0-47.53408 37.20704-86.24128 82.94912-86.24128l455.04512 0c45.71648 0 82.94912 38.7072 82.94912 86.24128L822.51776 395.81184 822.51776 395.81184zM552.58112 242.28864l0-114.5344c0-19.3536-15.20128-35.10272-33.9456-35.10272-18.77504 0-33.97632 15.74912-33.97632 35.10272l0 114.56512c-20.2752 12.11392-33.97632 34.78528-33.97632 60.71296 0 38.7328 30.42816 70.11328 67.95264 70.11328 37.46816 0 67.83488-31.40608 67.89632-70.144C586.52672 277.0432 572.85632 254.40256 552.58112 242.28864L552.58112 242.28864zM552.58112 242.28864l0-114.5344c0-19.3536-15.20128-35.10272-33.9456-35.10272-18.77504 0-33.97632 15.74912-33.97632 35.10272l0 114.56512c-20.2752 12.11392-33.97632 34.78528-33.97632 60.71296 0 38.7328 30.42816 70.11328 67.95264 70.11328 37.46816 0 67.83488-31.40608 67.89632-70.144C586.52672 277.0432 572.85632 254.40256 552.58112 242.28864L552.58112 242.28864z"  horiz-adv-x="1024" />

    
    <glyph glyph-name="90101" unicode="&#58895;" d="M948.15744 371.16928c0-3.61472-0.92672-6.99392-2.37056-10.0864-17.60768-224.72192-204.5696-401.82784-433.77152-401.82784-168.98048 0-315.32544 96.24064-387.6864 236.7744l0-91.38688c0-13.3888-10.86976-24.22784-24.22784-24.22784-13.3888 0-24.25856 10.83904-24.25856 24.22784l0 145.39264c0 13.38368 10.86976 24.22784 24.25856 24.22784 8.38144 0 15.40608-4.56704 19.74272-11.01312l26.68544 3.7888c53.02272-150.912 196.41856-259.29728 365.48096-259.29728 207.0272 0 375.69024 162.44736 386.64704 366.75584l1.76128 0.26112c1.792 11.6224 11.392 20.64384 23.50592 20.64384 9.74336 0 18.06848-5.84192 21.88288-14.16704l1.61792 0.2304c-0.03072-1.61792-0.31744-3.24096-0.40448-4.82816C947.46112 374.8096 948.15744 373.10464 948.15744 371.16928L948.15744 371.16928zM122.47552 439.94624c-4.4544-4.4544-10.7264-7.05536-16.9984-7.05536-6.30272 0-12.544 2.60096-16.9984 7.05536-4.4544 4.42368-7.05536 10.69568-7.05536 16.9984 0 6.272 2.60096 12.54912 7.05536 16.96768 4.4544 4.4544 10.69568 7.05536 16.9984 7.05536 6.272 0 12.54912-2.60096 16.9984-7.05536 4.42368-4.42368 7.02464-10.69568 7.02464-16.96768C129.50016 450.64192 126.8992 444.36992 122.47552 439.94624L122.47552 439.94624zM136.2944 237.312c-6.56384-6.56384-15.75424-10.37824-25.0368-10.37824-9.27744 0-18.47296 3.8144-25.0368 10.37824-6.56384 6.53312-10.37824 15.75936-10.37824 25.00608 0 9.27744 3.8144 18.50368 10.37824 25.0368 6.56384 6.56384 15.75424 10.37824 25.0368 10.37824s18.47296-3.8144 25.0368-10.37824c6.56384-6.53312 10.35264-15.75424 10.35264-25.0368C146.64704 253.07136 142.85824 243.84512 136.2944 237.312L136.2944 237.312zM915.05152 543.09888c-5.5808-5.5808-13.47072-8.84736-21.36576-8.84736-7.92064 0-15.78496 3.26656-21.39136 8.84736-5.6064 5.6064-8.84736 13.47072-8.84736 21.39136 0 7.92064 3.23584 15.78496 8.84736 21.36576 5.6064 5.6064 13.47072 8.87808 21.39136 8.87808 7.89504 0 15.78496-3.26656 21.36576-8.87808 5.6064-5.5808 8.87808-13.44512 8.87808-21.36576C923.9296 556.5696 920.66304 548.70528 915.05152 543.09888L915.05152 543.09888zM868.56704 546.65216c-58.97728 138.8544-196.18816 236.42624-356.55168 236.42624-195.89632 0-357.38624-145.41824-383.55456-334.09024l-47.03744 10.496c31.0784 210.3808 211.56352 372.07552 430.58688 372.07552 151.98208 0 285.4912-77.94176 363.43296-195.89632L875.4432 710.4c0 13.38368 10.86976 24.22784 24.22784 24.22784 13.38368 0 24.25344-10.84416 24.25344-24.22784l0-141.5168L868.56704 546.65216 868.56704 546.65216zM650.43968 575.24736l-103.78752-103.7568 86.49728 0c13.38368 0 24.22784-10.83904 24.22784-24.22784 0-13.4144-10.84416-24.25344-24.22784-24.25344l-96.90624 0 0-72.6784 96.90624 0c13.38368 0 24.22784-10.81344 24.22784-24.22784s-10.84416-24.22784-24.22784-24.22784l-96.90624 0 0-96.93696c0-13.3888-10.86976-24.22784-24.22784-24.22784-13.38368 0-24.22784 10.83904-24.22784 24.22784L487.78752 301.8752 390.85056 301.8752c-13.38368 0-24.22784 10.81344-24.22784 24.22784s10.83904 24.22784 24.22784 24.22784l96.93696 0L487.78752 423.00416 390.85056 423.00416c-13.38368 0-24.22784 10.83904-24.22784 24.25344 0 13.3888 10.83904 24.22784 24.22784 24.22784l85.43232 0L372.86912 574.8992c-9.45152 9.45152-9.45152 24.77568 0 34.25792 9.48224 9.48224 24.8064 9.48224 34.28864 0l103.9872-104.01792 104.71424 104.71424c9.53856 9.53856 25.0368 9.53856 34.57536 0C659.97824 600.28416 659.97824 584.84224 650.43968 575.24736L650.43968 575.24736z"  horiz-adv-x="1024" />

    
    <glyph glyph-name="10010101" unicode="&#58896;" d="M696.07424 615.51616c-10.40896-59.44832-33.60768-116.8384-69.59616-172.1088-19.6608-30.65344-62.35136-83.4048-128.03072-158.19264-17.8944-20.44416-44.68736-52.25472-80.384-95.46752l-29.75232-35.52256c-19.28192-23.26016-34.04288-41.58464-44.25216-55.07072-4.87424-6.90176-7.45472-11.07968-7.71584-12.52864l256.73216 0-22.55872-128.93184L154.5984-42.30656l21.14048 120.81152c0.49152 2.78528 12.81536 18.85184 37.00224 48.16896 11.136 13.45536 23.69536 28.30336 37.66784 44.51328l42.68544 49.38752c24.64768 27.40224 63.5392 71.28064 116.608 131.65568 50.10944 56.66816 89.08288 107.96544 117.01248 153.9584 22.76352 37.61152 37.00224 72.67328 42.69056 105.18016 4.61312 26.47552 1.18784 49.00864-10.32704 67.56864-12.72832 19.51744-31.77984 29.2608-57.15456 29.2608-36.4544 0-66.00192-21.14048-88.62208-63.39072-7.51104-13.94688-12.96384-30.67904-16.384-50.17088l-5.85728-33.46432L262.33344 561.17248l4.02944 22.99392c14.47424 82.67776 47.67744 145.8688 99.64544 189.5424 45.03552 38.56896 98.7136 57.856 160.9728 57.856 57.216 0 102.2208-21.6064 135.01952-64.81408C694.79936 723.53792 706.16576 673.13664 696.07424 615.51616L696.07424 615.51616zM801.40288-43.6992 670.6176-43.6992l23.05536 131.712 130.78528 0L801.40288-43.6992 801.40288-43.6992z"  horiz-adv-x="1024" />

    
    <glyph glyph-name="120101" unicode="&#58897;" d="M492.19072-40.2176 361.40544-40.2176 479.1552 631.61344 367.72352 631.61344l16.10752 91.904c32.04608 3.70688 64 15.67232 95.92832 35.87072 31.8976 20.19328 56.61184 44.67712 74.112 73.4464l91.35104 0L492.19072-40.2176 492.19072-40.2176zM802.8416-40.93952l-130.816 0 23.0656 131.59936 130.816 0L802.8416-40.93952 802.8416-40.93952z"  horiz-adv-x="1024" />

    
    <glyph glyph-name="1201010101" unicode="&#58900;" d="M570.624 18.75968c0-93.53216-71.60832-45.2352-71.60832-45.2352l-309.94432 261.36064L141.2096 234.88512c-29.66528 0-53.69856 24.5248-53.69856 54.76864l0 219.0336c0 30.24384 24.03328 54.76864 53.69856 54.76864l57.25184 0 300.55424 255.55456c0 0 71.60832 48.67584 71.60832-45.63968L570.624 18.75968 570.624 18.75968 570.624 18.75968 570.624 18.75968zM731.63264 253.13792c89.46176 73.02144 83.5072 211.44064 0 273.80736-32.78336 19.75808-53.66784-45.63968-53.66784-45.63968s83.4816-104.97024 0-182.528C661.5552 277.48864 692.86912 233.34912 731.63264 253.13792L731.63264 253.13792 731.63264 253.13792 731.63264 253.13792zM776.37632 682.09152c-11.9296 10.65984-70.07744-28.88704-35.7888-63.86688 177.41824-150.60992 180.39296-292.06528 0-447.23712-26.86464-25.856 8.92416-74.55744 35.7888-63.86688C1022.36672 221.21984 1011.93728 575.616 776.37632 682.09152L776.37632 682.09152 776.37632 682.09152 776.37632 682.09152z"  horiz-adv-x="1024" />

    
    <glyph glyph-name="150101" unicode="&#58901;" d="M958.0288 125.37344l-292.72576 280.02304 292.99712 249.75872c1.66912-5.17632 2.82624-10.56256 2.82624-16.24576l0-496.48128C961.12128 136.44288 959.90272 130.75968 958.0288 125.37344L958.0288 125.37344zM628.21888 439.3216l-39.07072-31.63648-77.16352-62.52032L435.00032 407.51104l-39.07072 31.66208L101.53472 690.03264c4.82304 1.42848 9.85088 2.43712 15.14496 2.43712l790.64064 0c5.26848 0 10.29632-1.01376 15.11424-2.43712L628.21888 439.3216 628.21888 439.3216zM907.32032 88.8576l0 0.03072L116.67968 88.88832c-5.05856 0-9.85088 0.9216-14.4896 2.23232l295.7056 282.5216 114.09408-92.42624 114.26816 92.57984 295.58784-282.67008C917.20192 89.81504 912.37888 88.8576 907.32032 88.8576L907.32032 88.8576zM65.9712 125.37344c-1.8432 5.38624-3.09248 11.06944-3.09248 17.0496l0 496.4864c0 5.6832 1.16224 11.06944 2.82624 16.24576l293.11488-249.87648L65.9712 125.37344 65.9712 125.37344z"  horiz-adv-x="1024" />

    
    <glyph glyph-name="1601" unicode="&#58903;" d="M696.07424 633.19552l-6.25152-36.22912c-9.24672-53.32992-32.82944-99.3536-70.83008-138.11712-16.256-16.39936-34.30912-30.29504-54.13888-41.69728 33.8432-21.43232 57.25184-53.99552 70.25152-97.75616 6.8608-22.33344 7.53152-49.4592 2.03776-81.3568l-11.71968-67.69152c-10.96192-63.36-41.16992-115.29216-90.65984-155.8528-47.45216-39.22432-99.7888-58.79296-157.01504-58.79296-55.8848 0-99.79392 20.03456-131.74784 60.16-31.95392 40.09472-43.08992 88.18688-33.3824 144.25088l3.6608 21.1968 122.35776 9.56416-2.52928-30.09536c-1.92-21.4272 2.52928-38.9632 13.34784-52.62848s26.752-20.5312 47.77472-20.5312c58.09664 0 91.91424 27.56608 101.44768 82.6368l8.72448 50.5344c15.2064 87.86944-22.33344 131.80416-112.64512 131.80416l19.13344 110.63808c48.73216 0 87.1168 13.87008 115.1744 41.66656 25.79456 25.0368 42.56768 60.07296 50.36032 105.16992l3.4304 19.79904c9.68192 56.00256-9.59488 84.00384-57.89184 84.00384-26.80832 0-48.29696-10.43968-64.40448-31.28832-12.12416-15.8464-20.38272-36.46464-24.77568-61.84448l-3.89632-22.42048L307.84 598.31808l3.4304 19.82976c10.55744 61.06112 34.33984 110.75072 71.38304 149.0176 41.98912 43.76064 94.26432 65.65376 156.84096 65.65376 59.46368 0 103.51104-20.5312 132.18304-61.55776C697.472 734.38208 705.6128 688.35328 696.07424 633.19552L696.07424 633.19552zM803.19488-44.26752l-131.13856 0 23.1168 132.06528 131.13344 0L803.19488-44.26752 803.19488-44.26752z"  horiz-adv-x="1024" />

    
    <glyph glyph-name="180101" unicode="&#58904;" d="M826.8544 202.08128l-1.14688-9.45152-1.6128-8.5248-2.4576-7.7312-0.93184-3.14368-1.69472-3.74272-1.44896-2.65216-1.91488-3.2768-1.69472-2.048-2.16064-2.62144-1.94048-2.12992-2.0224-1.83296-2.48832-1.12128-2.21184-1.12128-1.80224-0.60416L799.744 152.07936l-1.1776 0-1.77664 0.60416-3.41504 1.72032-1.55648 1.12128-1.6128 1.2288-1.77664 1.6384-1.77664 1.82784-2.97984 3.33312-3.52256 4.80768-2.73408 4.864-2.78528 3.93728-2.67776 4.58752-3.79904 8.1408-4.26496 8.44288-0.49152 0.30208-0.73728 0-1.75104-1.34144-0.98304-2.21184-1.69472-2.73408-2.89792-8.25344-4.37248-11.69408-5.6576-14.01344-4.17792-7.01952-4.4544-7.3216-5.2736-8.22272-5.57568-8.05888-2.8672-3.6352-3.44064-3.96288-7.97696-8.00256 0.68096-0.73728 1.12128-1.12128 3.96288-2.432 16.55808-8.1408 7.26528-4.15232 6.8864-4.0704 6.80448-5.10976 6.0928-5.2736 2.97984-2.32448 2.18624-2.72896 2.26816-3.16928 1.91488-3.44576 0.98304-2.8672 1.28512-3.47136 0.49152-2.94912 0.60416-3.41504-0.60416-2.35008 0-2.32448-0.49152-2.432-1.28512-2.26816-0.46592-1.74592-1.12128-2.10432-3.00544-4.15232-2.75968-3.38944-2.18624-2.51392-1.77664-1.85856-4.59264-3.41504-5.16096-2.97984-5.54496-2.8672-5.87264-2.73408L732.16 17.03424l-3.55328-1.1776-3.16928-0.90112-7.62368-1.82784-7.95136-1.69472-7.95136-1.75104-8.60672-1.44896-8.96-0.384-9.15456-1.09056-9.04192 0-9.53344 0-9.80992 0-10.24512 0.57344-9.56416 0.90112-10.21952 1.44896-10.2144 1.12128-10.76736 1.53088-10.38336 2.62144-10.1632 2.07872-10.10688 2.89792-10.35776 3.76832-10.1376 3.16928-5.3248 1.82784-4.78208 1.72032-3.03616 1.2032-2.94912 0.62976-3.85024 0-4.58752 0-9.7536 0.68096-4.92032 0.54784-6.36416 0.71168-4.096-3.76832-5.57568-3.55328-7.51104-3.76832-8.36096-4.66944-5.05344-2.57024-5.2992-1.99168-11.69408-4.8896-6.33856-1.6384-6.66624-1.82784-9.26208-1.80224-5.76512-0.51712-6.14912-0.49152-6.36416-0.73728-7.42912-0.30208-7.13216 0-7.45984 0-15.79008 0-17.15712 0.30208-16.64 1.74592-8.44288 1.2032-8.1664 1.2544-7.92576 1.17248-7.95136 1.6384-7.3472 2.4576-7.37792 1.69472-6.64064 2.73408-6.25664 2.57024-5.82144 2.8416-5.07904 3.16928-5.08416 3.76832-1.69472 1.80224-2.29376 2.24256-1.69472 1.94048L256 36.41344l-1.39264 2.23744-1.09056 2.24256-1.5872 4.75648-0.59904 2.4576-0.68096 2.75968 0 2.51392 0.68096 2.8416 0 2.89792 0.59904 2.816 0 1.72032 0 3.98848 0.27136 3.03104 1.31072 3.47136 1.09056 3.47136 1.9968 4.15232 1.47456 1.6128 1.17248 1.85856 3.16928 3.93216 2.53952 2.048 2.35008 1.41824 2.18624 1.82784 3.49696 1.12128 2.75968 1.69472 3.47136 1.85856 3.96288 1.2032 3.98848 1.25952 4.56192 1.00864 4.37248 0.59904 5.16096 0.68096 5.57568 0.44032 1.50528 0.49152 0.30208 0 0.71168 0.62464 0 0.71168-1.00864 1.39264-2.97984 1.44896-7.45984 6.58432-4.97152 4.0704-5.76512 5.21728-5.84704 5.76512-6.06208 7.40352-6.9376 8.33024-2.62144 4.48-3.44064 4.66944-3.00544 5.41184-2.65216 5.89824-3.60448 5.57568-2.35008 6.39488-2.816 6.42048-2.75968 7.13216-2.07872 6.80448-1.91488 8.44288-0.57344 0.30208-0.60416 0-0.30208 0.59904-0.73728 0-1.14688-0.59904-0.59904-0.30208-0.7936-1.44896-0.32768-1.72032-0.59904-1.53088-1.06496-2.53952-3.41504-6.17472-1.72032-3.76832-2.816-3.2768-2.97984-3.96288-3.30752-4.37248-3.44064-3.85024-4.0704-3.74272-3.76832-3.57888-4.18304-2.73408-4.56192-2.94912-4.37248-1.72032-5.16608-1.33632-5.10976-0.49152-0.46592 0-0.71168 0-1.17248 0.49152-0.90112 2.048-1.50528 1.00864-1.94048 4.8896-1.2288 2.65216-1.31072 3.74272-1.06496 3.93728-0.57344 3.88096-1.6128 8.85248-0.60416 5.19168 0 5.2736 0 11.8016 0.60416 12.70272 1.00864 6.5024 1.17248 6.69184 1.06496 7.21408 1.94048 6.71744 2.15552 7.7312 2.18624 7.51616 2.94912 7.7312 2.816 7.40352 3.85024 7.54176 3.60448 8.1152 4.37248 7.62368 5.16608 8.25344 5.24288 7.40352 5.49376 8.22272 4.56192 5.7088 5.84704 6.60992 6.14912 6.60992 2.8672 3.11296 3.47136 3.57888 5.05344 4.48 5.19168 4.56192 8.44288 7.7312 6.39488 4.75136 2.26816 1.75104-1.2544 3.96288-1.00864 5.19168-0.71168 2.8416L263.23456 393.984l0 4.29056L263.23456 402.1248l1.2032 4.56192 1.25952 4.8896 1.6128 5.07904 2.18624 5.6832 2.89792 5.89824 4.096 5.89824 0 4.15232 0.384 3.88096 0.57344 5.2736 1.77664 5.89824 1.6128 6.39488 1.28512 2.94912 1.47456 2.73408 1.88416 3.06176 2.0736 2.24256L287.55456 474.88l0 4.70016 0 5.76512 1.2288 7.54176 1.2032 8.74496 2.12992 10.46528 2.97984 10.87488 2.21184 6.01088 2.18624 6.5024 2.37568 6.0928 2.8672 6.5024 2.92352 7.10144 3.35872 6.72256 3.76832 7.10144 4.75648 7.13216 2.21184 4.0704 2.37568 3.36384 5.08416 7.51104 5.248 7.51616 5.95456 7.7312 6.36416 7.51104 6.9376 7.40352 7.26528 7.64928 8.74496 8.22272 5.57568 5.00224 6.77376 5.38112 6.83008 4.75648 7.45984 4.56192 7.13216 4.0704 8.03328 3.35872 8.5248 4.18304 8.49408 2.8416 8.4992 2.94912 9.14944 2.94912 9.15456 2.24256 9.64608 1.83296 9.7536 1.6128 9.58976 1.33632 9.64608 1.33632 10.24512 0.57344 9.7536 0 10.08128 0 10.46528 0 10.10688-1.31072 10.1376-1.2288 10.35776-1.12128 9.61536-2.35008 10.1376-2.21184 9.53344-2.53952 10.40896-2.8416 9.53344-3.47136 9.15456-3.96288 9.7536-4.17792 8.9344-4.56192 8.63232-5.07904 8.46848-5.60128 7.3216-5.16096 3.38944-2.95424 3.55328-2.12992 6.80448-5.89824 5.73952-5.6832 5.65248-5.89824 5.57568-6.5024 4.56192-6.31296 5.43744-6.5024 3.82464-7.02464 3.85536-6.20032 4.0704-7.21408 3.38944-6.30784 5.73952-13.30688 2.78528-6.912 2.21184-6.39488 2.18624-6.912 1.94048-6.5024 1.41824-5.60128 1.75104-6.60992 3.11296-11.776 1.9968-10.27584 1.2544-9.94304 1.14688-8.03328 1.72032-12.2112 0.4352-1.94048 1.39264-2.24256 3.76832-6.28224 2.4064-4.25984 2.18624-4.48 2.72896-4.78208 2.432-5.7088 1.55648-5.87264 1.69472-6.39488 1.31072-6.60992 0.59904-3.2256 0.51712-3.98848 0-3.47136-0.51712-3.44064 0-4.29056-1.00864-4.15232-1.80224-8.03328-2.07872-4.0704-1.47456-4.56192 0-1.12128 0.68096-1.42336 2.07872-3.35872 8.9344-13.52704 7.10656-10.1632 3.33312-6.80448 4.58752-7.40352 3.98848-8.1408 4.56192-8.74496 4.56192-9.7536 5.16608-11.08992 2.8928-6.80448 2.65216-6.58432 2.29376-7.01952 2.26816-6.31296 1.69472-6.61504 1.77664-6.20032 2.21184-12.10368 1.74592-12.37504 1.2288-10.9824 0-5.98528 0-4.8896 0-4.56192L826.8544 202.08128 826.8544 202.08128zM887.53152 345.6256l-39.53152 0c-21.49888 0-23.49568 5.82144-23.49568 27.70432L824.50432 496.65536l0 0.384c-16.88576 158.9248-149.22752 282.69056-309.98528 282.69056-161.08544 0-293.62176-124.20096-310.0928-283.59168l0-122.80832c0-21.85728-1.9968-27.70432-23.52128-27.70432l-39.53664 0c-21.5296 0-39.12192 17.92-39.12192 39.808L102.2464 482.66752c0 21.88288 17.59744 39.808 39.12192 39.808l20.81792 0c28.0576 172.12416 175.09888 303.37536 352.3328 303.37536 177.2032 0 324.24448-131.2512 352.3072-303.37536l20.7104 0c21.5296 0 39.15264-17.92 39.15264-39.808L926.68928 385.4336C926.68416 363.52 909.06112 345.6256 887.53152 345.6256L887.53152 345.6256z"  horiz-adv-x="1024" />

    
    <glyph glyph-name="200101" unicode="&#58907;" d="M334.52544 33.40288c-16.90624-16.29184-15.98464-43.8784 2.09408-61.34272 18.07872-17.41824 46.63296-18.33472 63.5392-2.09408l357.34016 348.24704 0 0 14.50496 14.04416 51.12832 49.39264-65.63328 63.3856 0 0L396.43136 796.86144c-17.16224 16.59904-45.97248 15.88224-64.0512-1.53088-18.07872-17.46944-18.79552-45.30688-1.58208-61.85472l359.74144-351.31392L334.52544 33.40288 334.52544 33.40288z"  horiz-adv-x="1024" />

    
    <glyph glyph-name="210101" unicode="&#58908;" d="M816.62976-33.26464l-304.5888 304.5888-304.5888-304.5888c-15.31904-15.21152-40.09472-15.21152-55.30624 0l-55.41888 55.41888c-15.32416 15.31904-15.32416 40.09472 0 55.30624l304.5888 304.5888-304.5888 304.5888c-15.32416 15.21152-15.32416 40.09472 0 55.31136l55.41888 55.41888c15.21152 15.31904 39.9872 15.31904 55.30624 0l304.5888-304.5888 304.48128 304.5888c15.31904 15.31904 40.09984 15.31904 55.41888 0l55.41888-55.41888c15.21664-15.21664 15.21664-40.09984 0-55.31136l-304.5888-304.5888 304.5888-304.5888c15.21664-15.21152 15.21664-39.9872 0-55.30624l-55.41888-55.41888C856.61696-48.47616 831.84128-48.47616 816.62976-33.26464L816.62976-33.26464z"  horiz-adv-x="1024" />

    
    <glyph glyph-name="220101" unicode="&#58909;" d="M627.23072 271.0272l63.59552 0 0-69.71392-63.59552 0L627.23072 271.0272 627.23072 271.0272 627.23072 271.0272zM705.60256 271.0272l63.62624 0 0-69.71392-63.62624 0L705.60256 271.0272 705.60256 271.0272 705.60256 271.0272zM787.40992 271.0272l63.62624 0 0-69.71392-63.62624 0L787.40992 271.0272 787.40992 271.0272 787.40992 271.0272zM85.23264 161.4592c0-40.81152 34.78016-74.1376 77.29152-74.1376l703.74912 0c42.54208 0 77.4144 33.32608 77.4144 74.1376L943.68768 473.12896 85.23264 473.12896 85.23264 161.4592 85.23264 161.4592 85.23264 161.4592zM866.2784 700.33408 162.52416 700.33408c-42.51136 0-77.29152-33.32608-77.29152-74.1376l0-82.85696 858.46016 0L943.6928 626.19648C943.6928 667.008 908.82048 700.33408 866.2784 700.33408L866.2784 700.33408 866.2784 700.33408z"  horiz-adv-x="1024" />

    
    <glyph glyph-name="230101" unicode="&#58912;" d="M213.8624 137.07264c-30.1824 0-55.71584-20.03968-64.04096-47.63648l-29.05088-96.24576c-0.36352-1.2544-0.56832-2.54464-0.56832-3.92192 0-7.43424 5.98016-13.45536 13.37344-13.45536 1.37216 0 2.66752 0.19968 3.88096 0.56832l95.84128 29.2096c27.47392 8.36608 47.47776 33.98144 47.47776 64.2816C280.77568 107.008 250.83392 137.07264 213.8624 137.07264L213.8624 137.07264 213.8624 137.07264zM909.62944 809.0368c-395.84256 0-480.6912-203.8016-544.65024-243.11296C264.8576 559.78496 161.01376 508.78976 102.144 425.8816c-8.0384-11.3152-9.69728-25.97888-4.4032-38.83008 5.25312-12.81024 16.768-22.02112 30.38208-24.32512 36.08064-6.13888 86.58944-22.38464 126.90944-46.30016-7.2704-26.8288-13.2096-52.8896-17.41312-77.25568-2.22208-12.928 1.94048-26.14272 11.15136-35.39456l98.34496-98.74944c7.59808-7.63392 17.8176-11.83744 28.3648-11.83744 2.304 0 4.608 0.2048 6.87104 0.60416 24.32512 4.24448 50.26304 10.18368 76.96896 17.536 23.83872-40.56576 39.99744-91.3152 46.10048-127.51872 2.304-13.696 11.47392-25.25184 24.28416-30.58688 4.93056-2.0224 10.14272-3.03104 15.31392-3.03104 8.2432 0 16.40448 2.54464 23.31136 7.4752 82.54464 59.15136 133.29408 163.43552 139.39712 264.04352 137.65632 138.42432 238.54592 273.21344 242.06336 546.9952C950.07232 790.97856 931.8144 809.0368 909.62944 809.0368L909.62944 809.0368 909.62944 809.0368zM275.56352 382.20288c-27.67872 15.31392-65.89952 27.67872-92.76928 36.16256 35.3536 36.48512 90.8288 61.94176 139.71968 73.73824C304.04608 455.82336 288.45056 418.72896 275.56352 382.20288L275.56352 382.20288 275.56352 382.20288zM560.8192 38.64576c-8.44288 27.06944-20.72576 65.45408-36.03968 93.25568 36.4032 12.96896 73.37472 28.6464 109.49632 47.19104C622.5152 129.96096 597.14048 74.1632 560.8192 38.64576L560.8192 38.64576 560.8192 38.64576zM685.82912 469.6832c-46.62784 0-84.44416 37.98016-84.44416 84.80768 0 46.86848 37.81632 84.84864 84.44416 84.84864 46.6688 0 84.48512-37.98016 84.48512-84.84864C770.31424 507.65824 732.49792 469.6832 685.82912 469.6832L685.82912 469.6832 685.82912 469.6832z"  horiz-adv-x="1024" />

    
    <glyph glyph-name="240101" unicode="&#58913;" d="M941.93152 379.1616c0-34.97984-28.34432-63.32416-63.2832-63.32416L708.096 315.83744l0-282.01984c0-3.62496-0.26624-7.17312-0.72704-10.68032 0.45568-3.08736 0.72704-6.21568 0.72704-9.46176 0-34.944-28.34432-63.32416-63.28832-63.32416-3.20512 0-6.36928 0.26624-9.46176 0.72192-3.47136-0.45568-7.05536-0.72192-10.64448-0.72192l-223.0784 0c-3.62496 0-7.17312 0.26624-10.68032 0.72192-3.05152-0.45568-6.21568-0.72192-9.4208-0.72192-34.944 0-63.2832 28.38016-63.2832 63.32416 0 3.24096 0.2304 6.36928 0.68608 9.46176-0.41984 3.5072-0.68608 7.05536-0.68608 10.68032l0 282.01984L145.35168 315.83744c-34.944 0-63.2832 28.34432-63.2832 63.32416 0 21.85728 11.06432 41.15968 27.92448 52.5312l354.04288 354.304c11.63264 14.07488 29.184 23.04 48.82944 23.04 17.62304 0 33.53088-7.20896 45.01504-18.80576l0.0768 0.0768 368.3072-368.5376-0.41984-0.41984C935.82848 410.1376 941.93152 395.37664 941.93152 379.1616L941.93152 379.1616zM635.07968 353.8688c7.4752 0.57344 13.42976 3.43552 17.88928 8.62208 4.42368 5.15072 6.94272 11.48416 7.51616 18.9184-0.57344 7.20896-3.01568 13.08672-7.3216 17.664-4.2752 4.61824-10.18368 7.17312-17.62304 7.7824l-63.2832 0L638.976 515.34336c5.76 7.4752 8.62208 15.37536 8.62208 23.69024-0.87552 6.02624-2.2528 10.91072-4.1216 14.64832-1.83296 3.7376-4.15744 6.59968-6.86592 8.62208-2.70848 2.0224-5.87264 3.4304-9.46176 4.31104-3.584 0.83968-7.552 1.41312-11.8272 1.7152-6.90688-0.87552-13.08672-3.16416-18.53952-6.90688-5.4528-3.7376-9.8816-8.0128-13.312-12.89216L511.55968 427.95008l-65.42336 119.7056c-3.43552 4.88448-7.89504 9.38496-13.35296 13.58336-5.4528 4.15744-11.5968 6.52288-18.49856 7.09632-11.7504-1.44896-19.79904-4.69504-24.11008-9.69216-4.31104-5.03808-7.17312-11.56096-8.62208-19.6096-0.26624-6.29248 0.87552-12.12928 3.47136-17.4336 2.55488-5.2992 5.30432-9.68704 8.16128-13.12256l57.6768-101.62176L388.87936 406.85568c-7.74144-0.60928-13.696-3.16416-17.85344-7.7824-4.15744-4.57728-6.67648-10.44992-7.51616-17.664 0.83968-7.43936 3.35872-13.6192 7.51616-18.49856 4.15744-4.88448 10.10688-7.59296 17.85344-8.16128l83.08224-0.45568 0-27.12064L388.87936 327.17312c-7.74144-0.57344-13.696-3.16416-17.85344-7.74656-4.15744-4.61824-6.67648-10.49088-7.51616-17.664 0.83968-7.17312 3.35872-13.696 7.51616-19.60448 4.15744-5.87264 10.10688-9.11872 17.85344-9.68704L471.9616 272.47104l0-44.78464c0.57344-12.32384 4.38784-21.51424 11.40736-27.54048 7.01952-6.02624 16.86016-9.04192 29.48608-9.04192 25.51808 0 38.87104 12.17024 40.0128 36.5824l0 45.66016 82.6624-0.41984c7.43936 0.57344 13.35296 3.35872 17.62304 8.39168 4.31104 4.99712 6.75328 11.25376 7.3216 18.72896-0.57344 7.17312-3.01568 13.35296-7.3216 18.49856-4.2752 5.18656-10.18368 8.04864-17.62304 8.62208l-82.6624 0 0 26.28096L635.07968 353.8688 635.07968 353.8688z"  horiz-adv-x="1024" />

    
    <glyph glyph-name="260101" unicode="&#58914;" d="M927.29344 337.80224l0.41984-0.41984-368.52224-368.78848-0.0768 0.0768c-11.48928-11.60192-27.40736-18.816-44.99968-18.816-19.69664 0-37.25312 9.00608-48.85504 23.0912L110.98112 327.424c-16.83456 11.41248-27.93984 30.68928-27.93984 52.5568 0 35.00032 28.35968 63.36 63.32416 63.36l172.9792 0L319.34464 725.52448c0 3.62496 0.26624 7.21408 0.72704 10.68544-0.4608 3.09248-0.72704 6.26176-0.72704 9.46688 0 35.00032 28.35968 63.36 63.32416 63.36 3.20512 0 6.3744-0.2304 9.46688-0.68608 3.47136 0.41984 7.02464 0.68608 10.6496 0.68608l223.21152 0c3.62496 0 7.17824-0.26624 10.69056-0.68608 3.05152 0.45568 6.2208 0.68608 9.42592 0.68608 34.96448 0 63.32416-28.35968 63.32416-63.36 0-3.20512-0.2304-6.3744-0.72704-9.46688 0.45568-3.47136 0.72704-7.06048 0.72704-10.68544L709.43744 443.3408l170.65472 0c35.00032 0 63.32416-28.35968 63.32416-63.36C943.40096 363.76064 937.33376 348.98944 927.29344 337.80224L927.29344 337.80224zM636.41088 353.60768c7.48032 0.57344 13.43488 3.43552 17.86368 8.6272 4.46464 5.15072 6.98368 11.48928 7.55712 18.92864-0.57344 7.21408-3.01568 13.09184-7.32672 17.67424-4.31104 4.61824-10.19392 7.17824-17.67424 7.78752l-63.32416 0 66.75456 108.55424c5.76512 7.48032 8.6272 15.38048 8.6272 23.70048-0.83968 6.03136-2.21184 10.91584-4.08576 14.65856-1.8688 3.74272-4.16256 6.6048-6.90688 8.6272-2.70848 2.0224-5.87776 3.43552-9.46688 4.31104-3.58912 0.83968-7.52128 1.41312-11.83232 1.72032-6.90688-0.88064-13.056-3.16928-18.51392-6.90688-5.45792-3.74272-9.92256-8.0128-13.35808-12.9024L512.8192 427.72992 447.32416 547.50208c-3.43552 4.88448-7.90016 9.39008-13.32224 13.58848-5.45792 4.16256-11.64288 6.528-18.54976 7.10144-11.75552-1.44896-19.80928-4.69504-24.08448-9.69728-4.31104-5.03808-7.21408-11.56608-8.6272-19.61984-0.3072-6.2976 0.83968-12.13952 3.43552-17.44384 2.59584-5.30432 5.30432-9.69728 8.20736-13.12768l57.67168-101.6832L390.0672 406.62016c-7.74656-0.60928-13.74208-3.16928-17.89952-7.78752-4.16256-4.5824-6.6816-10.46016-7.52128-17.67424 0.83968-7.44448 3.35872-13.62432 7.52128-18.51392 4.15744-4.88448 10.15296-7.59808 17.89952-8.1664l83.09248-0.45568 0-27.136L390.0672 326.8864c-7.74656-0.57344-13.74208-3.16928-17.89952-7.74656-4.16256-4.61824-6.6816-10.496-7.52128-17.67424 0.83968-7.17312 3.35872-13.70112 7.52128-19.61984 4.15744-5.87776 10.15296-9.12384 17.89952-9.69728l83.09248 0 0-44.81024c0.57344-12.32896 4.38784-21.52448 11.41248-27.55584 7.06048-6.03136 16.8704-9.04704 29.50144-9.04704 25.5744 0 38.93248 12.17536 40.07936 36.60288l0 45.69088 82.67264-0.41984c7.48032 0.57344 13.35808 3.35872 17.67424 8.3968 4.31104 5.00224 6.7584 11.25888 7.32672 18.7392-0.57344 7.17312-3.01568 13.35808-7.32672 18.51392-4.31104 5.19168-10.19392 8.05376-17.67424 8.6272l-82.67264 0 0 26.29632L636.41088 353.60768 636.41088 353.60768z"  horiz-adv-x="1024" />

    
    <glyph glyph-name="270101" unicode="&#58915;" d="M767.10912 460.81536l3.4048 0 0 12.08832c0 184.77568-117.36064 336.80896-258.4576 336.80896-141.15328 0-258.4576-152.03328-258.4576-336.80896l0-12.08832 3.3536 0c-50.99008 0-91.81184-34.50368-91.81184-75.93472l0-352.3584c0-41.48224 40.82176-74.22976 91.81184-74.22976l510.16192 0c50.99008 0 91.75552 32.74752 91.75552 74.22976l0 352.3584C858.86464 426.30656 818.09408 460.81536 767.10912 460.81536L767.10912 460.81536 767.10912 460.81536zM554.52672 96.41984c0-1.76128-1.64864-1.76128-5.10976-1.76128L479.6928 94.65856c-3.3536 0-5.05344 0-5.05344 1.76128l11.92448 119.17312c-17.03424 10.32704-28.9536 29.3376-28.9536 51.8144 0 31.04256 23.79264 56.97536 54.4512 56.97536 30.60224 0 54.4512-25.9328 54.4512-56.97536 0-20.71552-10.21952-39.72608-25.49248-50.10944l0-1.70496L554.52672 96.41984 554.52672 96.41984 554.52672 96.41984zM311.3984 460.81536l0 13.79328c0 148.56704 90.10688 269.44512 200.65792 269.44512 110.54592 0 200.65792-120.87808 200.65792-269.44512l0-13.79328L311.3984 460.81536 311.3984 460.81536 311.3984 460.81536z"  horiz-adv-x="1024" />

    
    <glyph glyph-name="280101" unicode="&#58916;" d="M512 809.70752c-177.0496 0-320.56832-143.56992-320.56832-320.73728 0-177.16224 143.51872-320.73728 320.56832-320.73728 177.05472 0 320.56832 143.56992 320.56832 320.73728S689.0496 809.70752 512 809.70752L512 809.70752 512 809.70752 512 809.70752zM298.28608 182.13376l0-174.2592c0-7.36768 1.50528-14.45376 4.12672-20.8128 2.73408-6.36416 6.64064-12.1088 11.43808-17.01888 9.76384-9.6512 23.10144-15.62624 37.83168-15.62624 7.36768 0 14.45376 1.50528 20.8128 4.18304 6.41536 2.73408 12.1088 6.64064 16.96256 11.43808L512 92.63104l122.53696-122.59328c9.6512-9.6512 22.9888-15.62624 37.77536-15.62624 29.46048 0 53.4016 23.936 53.4016 53.45792l0 174.2592C665.1136 139.776 591.5136 114.78016 512 114.78016 432.43008 114.78528 358.8864 139.78112 298.28608 182.13376L298.28608 182.13376 298.28608 182.13376 298.28608 182.13376z"  horiz-adv-x="1024" />

    
    <glyph glyph-name="290101" unicode="&#58917;" d="M803.47648 701.38368c-7.44448-0.22528-14.77632-0.33792-21.99552-0.33792l0 0c-188.97408 0-272.26624 86.62016-272.94208 87.35232l-18.8928 20.63872-18.8928-20.63872c-0.8448-0.90112-88.704-94.00832-294.9888-87.0144l-26.44992 0.90112 0-392.5504c0-102.80448 34.28864-252.6976 331.0848-367.40096l9.24672-3.6096 9.24672 3.6096c296.73984 114.70336 331.07968 264.59648 331.07968 367.40096l0 392.5504L803.47648 701.38368 803.47648 701.38368 803.47648 701.38368zM455.81312 193.34144l-198.16448 175.54944 52.66944 42.63424 105.344-77.71136c0 0 145.4336 150.45632 285.85472 220.66688l20.07552-22.61504C721.59232 531.8656 546.0992 386.432 455.81312 193.34144L455.81312 193.34144 455.81312 193.34144z"  horiz-adv-x="1024" />

    
    <glyph glyph-name="300101" unicode="&#58918;" d="M946.4064 125.94176c-14.49984 39.99232-62.43328 45.71136-102.52288 61.78816-43.98592 17.65376-92.75904 38.1696-136.64768 55.33184-12.57472 3.20512-25.09824 6.46144-37.62688 9.71776-14.94016 9.81504-29.58848 42.35776-37.57568 58.53184-7.9872 1.13152-15.92832 2.22208-23.91552 3.25632 1.23392 25.05216 17.50528 26.42944 23.91552 45.56288 5.62176 16.86528 0.59392 38.8096 9.51808 54.44096 6.21568 10.84928 20.21888 10.89536 27.22304 20.21888 6.35904 8.43264 10.55232 23.12704 12.52352 33.4848 3.65056 18.88768 6.80448 44.7744-2.6112 63.5136-5.42208 10.752-8.82688 11.78624-10.35776 24.85248-1.82272 15.83104 4.88448 67.51232 5.17632 78.65344 0.6912 28.99456-0.0512 31.36512-7.44448 59.5712 0 0-8.92416 25.59488-22.92736 33.28512l-28.01152 4.58752-17.25952 15.23712c-69.632 40.7808-144.29184 12.18048-184.23296-3.25632C356.02944 726.96832 319.5904 673.26464 345.0368 558.56128c4.33664-19.62496-11.29472-28.40576-10.26048-39.05536 2.22208-23.424 2.7136-79.59552 25.89184-93.45024 2.17088-1.28512 18.64192-5.22752 18.53952-4.14208 2.26816-22.784 4.53632-45.5168 6.80448-68.3008 5.82144-15.13984 19.72736-16.81408 23.76704-38.1696l-17.80224-4.14208c-7.9872-16.17408-22.63552-48.72192-37.62688-58.53184-12.52864-3.25632-25.05216-6.50752-37.57568-9.71776-43.88864-17.16224-92.66176-37.67296-136.64768-55.33184-40.0896-16.0768-88.02304-21.79584-102.52288-61.78816 0-27.12064-2.7136-91.27936-1.9712-126.88384L458.7008-0.95232l28.1088 182.85568-23.3728 46.99648 54.00064 24.60672 45.4144-24.1152-25.05216-48.37376 44.33408-181.9648 366.24896 0C949.0688 34.6624 946.4064 98.816 946.4064 125.94176L946.4064 125.94176 946.4064 125.94176z"  horiz-adv-x="1024" />

    
    <glyph glyph-name="330101" unicode="&#58921;" d="M928.57856 612.58752 817.21856 612.58752 511.59552 309.39648 205.96736 612.58752 95.42144 612.58752 511.59552 197.22752Z"  horiz-adv-x="1024" />

    
    <glyph glyph-name="340101" unicode="&#58922;" d="M942.34112-42.04544l-30.02368-11.24352c-35.08736-4.98688-82.5856-2.46784-142.63296 7.50592-40.07424 0-105.10336 22.51776-195.2 67.54816-42.56768 20.04992-83.86048 41.2928-123.8528 63.81056l-41.2928-11.27424-37.5296-15.01184c-15.01184-15.01184-73.83552-27.49952-176.41984-37.5296l-7.50592 0L142.848 21.76l-48.79872 11.27424c0 5.03808-5.03808 7.50592-15.01184 7.50592l0 3.7376 15.01184 18.77504 33.78688-7.50592 18.74944 3.7376c117.59616 32.56832 193.89952 60.07296 228.98688 82.5856l0 3.7376 0 7.53152c-60.07296 52.53632-98.89792 100.03456-116.3776 142.63296l3.76832 3.7376 11.24352 0c60.07296-25.0368 118.84032-56.30464 176.41984-93.83424l11.27424 0c4.98688 0 19.99872 52.53632 45.03552 157.6448l-7.50592 0c0-15.01184-42.56768-37.5296-127.62112-67.54816l-15.01184 0c-10.02496 4.98688-15.01184 15.01184-15.01184 30.02368l0 7.50592c2.46784 12.4928 30.02368 28.7232 82.56 48.79872l26.28096 101.34016 0 11.24352L424.3456 494.68416l-11.24352 0-33.78688 0c-25.0368 0-45.03552 20.02432-60.04224 60.07296l11.24352 7.50592 33.78688-7.50592c24.9856 7.50592 42.51648 16.2304 52.54144 26.28096 37.5552 15.01184 56.30464 37.5296 56.30464 67.54816 24.98048 117.59616 38.77376 176.41984 41.2928 176.41984l30.02368 0c4.98688 0 8.75008-5.03808 11.27424-15.01184 0-10.05056-16.31232-55.08608-48.79872-135.12704l-3.76832-37.5552c32.512 9.97376 53.7856 28.7488 63.81056 56.30464l37.5552 15.01184c2.46784 0 23.73632-21.26848 63.81056-63.81056l0-3.7376 3.74272-30.02368c-10.02496-17.53088-46.336-38.83008-108.84608-63.81056l-26.28096-7.50592c-10.02496 0-21.2992-7.50592-33.78688-22.51776-12.544-15.03744-22.51776-42.59328-30.02368-82.5856l-11.24352-48.79872 3.7376 0c55.00416 39.99232 91.3152 60.07296 108.84608 60.07296l22.54336 3.7376c35.00544-5.03808 52.53632-12.544 52.53632-22.51776l0-15.01184c-45.03552-32.54272-67.54816-62.592-67.54816-90.09152l-37.5552-150.13888 0-11.24352c112.60928-35.08736 200.18176-65.05472 262.74816-90.09152 50.01728-22.51776 95.0784-38.77376 135.12704-48.79872l7.50592 0 0-11.24352C949.84704-6.95808 947.328-24.51456 942.34112-42.04544L942.34112-42.04544z"  horiz-adv-x="1024" />

    
    <glyph glyph-name="3501" unicode="&#58923;" d="M898.81088 584.32c-19.96288 0-29.89568-53.61152-29.89568-160.7168-22.42048-64.80384-33.64352-128.34304-33.64352-190.58688l0-3.74784 33.64352-186.86464 0-11.22304c0-49.80224-33.64352-78.48448-100.90496-85.95968l-18.69824 0c-12.4928 0-33.61792 11.22304-63.5392 33.64352-42.38336 17.45408-83.50208 39.87456-123.32544 67.26144l-3.74784-3.72224-7.4752 0-3.72224 14.94528-3.74784 0c-39.87456 24.92928-66.048 49.80224-78.48448 74.73152l0 7.4752 7.4752 3.74784-3.72224 22.42048 22.42048 29.89568 52.31616-29.89568c42.35776-22.42048 73.46688-37.36576 93.42976-44.84096l74.76224-18.69824c9.92768 0 16.18944 61.0304 18.69824 183.13728-17.4848-22.42048-38.66112-39.87456-63.5392-52.31616-54.85056 22.42048-91.00288 58.49088-108.40576 108.38016l0 3.72224 11.22304 18.69824 7.4752 0 3.74784-7.4752c22.42048 7.4752 33.61792 14.94528 33.61792 22.42048 27.38176 0 46.08-8.77056 56.064-26.16832l3.74784 3.74784 11.19744 0c27.38688-19.96288 41.11872-38.66112 41.11872-56.064l3.74784-3.72224 7.4752 0c2.4576 62.24384 6.17984 93.42976 11.19744 93.42976l-7.4752 7.4752 0 3.72224 14.94528 142.02368-3.72224 3.74784-3.75296 0c-27.43808-7.4752-76.02688-16.24064-145.74592-26.16832l-7.4752 0c-47.37536 12.43648-71.00928 24.87808-71.00928 37.36576 0 9.92768 48.5888 23.65952 145.74592 41.11872l41.11872 22.42048 0-7.4752c27.38176 9.92768 41.11872 18.69824 41.11872 26.16832l0 3.72224-11.22304 0 0 3.74784 7.4752 18.69824c-52.31104 24.87296-78.48448 51.0208-78.48448 78.48448l37.36576 11.19744 11.22304-7.4752 11.22304 11.22304c39.82336-2.5088 78.48448-22.42048 115.85024-59.81696l11.19744-33.61792 33.64352 3.72224 11.22304 0c29.89568-7.4752 44.84096-23.71584 44.84096-48.5888C929.9456 596.7616 913.75616 584.32 898.81088 584.32L898.81088 584.32zM330.72128 490.89024c-14.94528-2.5088-22.42048-13.73184-22.42048-33.64352 12.43648 0 28.62592-24.92928 48.59392-74.73152l-14.94528-115.88096c4.96128 0 23.63392 43.5712 56.064 130.82624l11.19744 0c-14.94528-74.76224-48.5632-191.90784-100.90496-351.32928-22.42048-14.94528-33.64352-27.38688-33.64352-37.36576l-3.72224 3.74784-3.74784 0-29.89568-3.74784-11.19744 67.26144 0 22.44608c39.82336 114.55488 59.78624 196.79232 59.78624 246.65088-2.5088 24.87296-8.77056 37.39648-18.69824 37.39648-7.4752 0-22.42048-16.24064-44.84096-48.59392l-44.84096-37.36576c-14.94528-7.5008-29.89568-13.73184-44.86656-18.69824-17.45408 0-36.12672 7.4752-56.0384 22.42048 0 52.31616 16.16384 93.42976 48.5632 123.32544l29.92128 22.44608c102.1184 127.04768 153.22112 211.7376 153.22112 254.12608l0 44.86656-22.42048 67.26144 22.42048 11.22304c84.68992-24.95488 127.07328-72.30464 127.07328-142.02368l0-33.64352c-2.5088-24.92928-37.36576-73.51808-104.6528-145.77152L330.7264 490.89024 330.72128 490.89024z"  horiz-adv-x="1024" />

    
    <glyph glyph-name="36010101" unicode="&#58924;" d="M908.53376-21.2992l-82.56-15.01184c-20.07552 2.51904-66.3296 46.336-138.89024 131.35872-37.5296 52.53632-61.34272 106.32192-71.31648 161.408l3.76832 0c27.49952-20.08064 57.5232-45.06112 90.06592-75.0848l108.87168-75.05408c15.01184-9.97376 37.5296-15.60576 67.54816-16.90624 30.02368-1.21856 45.03552-4.33664 45.03552-9.37472l22.54336-7.50592 3.7376-7.50592 0-30.02368C949.82656-2.54464 933.51424-21.2992 908.53376-21.2992L908.53376-21.2992zM803.456 346.52672l-33.78688 7.50592c-100.11648-20.04992-156.42112-36.28032-168.91392-48.77312l-26.28096-60.07296c-27.55584-87.6288-75.05408-152.6016-142.63296-195.16928-17.53088-17.47456-35.06176-33.78688-52.53632-48.79872l-30.02368-11.27424-18.77504 11.27424c-15.01184-30.02368-25.0368-45.03552-30.02368-45.03552l-18.78016-3.76832c-7.50592 2.51904-15.01184 3.76832-22.51776 3.76832-22.51776 35.06176-33.76128 57.57952-33.76128 67.54816l3.7376 3.76832-3.7376 3.7376 3.7376 37.5296-3.7376 45.06112-3.76832 37.5296 0 33.78688-7.50592 112.58368L210.3808 297.728l-26.25536-90.06592c-15.01184-32.54272-28.8-52.56704-41.2928-60.07296-37.5296 2.46784-56.30464 23.76192-56.30464 63.81056l26.28096 337.82784 11.24352 15.01184 3.76832 0c9.97376 0 18.74944-31.32416 26.28096-93.83424l0-33.78688-11.27424-93.83424c-2.51904-7.50592-3.76832-26.28096-3.76832-56.30464-5.03808-12.544-6.25664-37.5296-3.7376-75.0848l0-7.50592c55.00416 85.05344 82.56 190.1568 82.56 315.3152L217.8816 586.75712 217.8816 661.84192c4.98688 85.02784 9.97376 133.82656 15.03744 146.37056l3.7376 3.76832 0 3.7376c7.50592 2.46784 19.99872-6.90688 37.5296-28.15488 17.47456-21.2992 35.03616-44.46208 52.56704-69.44768l-7.50592-123.8528 3.7376-3.7376 0-7.53152c-10.02496-72.58624-15.01184-136.3968-15.01184-191.40608l0-7.50592 0-7.50592 3.76832-3.76832 0-7.50592-3.76832-26.28096 3.76832-3.7376-3.76832-127.62112 3.76832-18.77504 0-41.2928 3.7376-3.7376 3.76832 0c-5.03808-15.01184-6.28736-37.5296-3.76832-67.57888l0-15.01184 7.50592 0c-2.51904 27.58144 23.76192 48.79872 78.8224 63.81056 72.56064 55.02976 108.87168 105.10336 108.87168 150.13888l-45.06112-11.24352-7.50592 0c-17.53088 0-28.8 6.20544-33.78688 18.74944l0 26.28096c9.96864 45.03552 31.26784 68.79744 63.81056 71.31648 47.52896 24.98048 71.31648 50.01728 71.31648 75.0848l3.76832 123.8528c-42.59328 15.01184-73.83552 33.78688-93.83424 56.30464l11.24352 0 90.09152 7.50592 3.7376 15.01184-3.7376 71.31648c-15.01184 27.50464-33.78688 55.00416-56.30464 82.5856l0 3.7376c0 7.50592 3.76832 11.27424 11.26912 11.27424 0 4.98688 7.50592 8.72448 22.51776 11.24352l22.51776-3.7376 3.7376 3.7376c0-5.03808 4.98688-10.6752 15.03744-16.88064 9.96864-6.28736 21.21728-16.88064 33.76128-31.91808 12.4928-12.544 18.77504-28.7744 18.77504-48.77312l-15.01184-75.0848 3.7376 0c17.47456 2.46784 37.5552 12.4928 60.07296 30.02368l18.74944 3.76832c60.06784-2.51904 91.31008-20.04992 93.85984-52.56704 0-20.04992-52.56704-92.58496-157.6704-217.68704l15.03744 3.7376c39.99232 0 77.52192 7.50592 112.58368 22.54336l0 15.01184c55.02976-15.01184 82.5856-27.58144 82.5856-37.5552l7.50592-18.74944 0-7.50592C838.46144 369.04448 818.46272 348.99456 803.456 346.52672L803.456 346.52672zM683.3408 609.27488l-3.76832 0c-45.03552-12.544-66.3296-41.2928-63.81056-86.32832l0-33.78688C658.27328 539.20768 680.81664 579.2512 683.3408 609.27488L683.3408 609.27488zM401.81248 385.43872l-18.74944-3.7376c-25.0624 0-43.81184 32.4864-56.30464 97.57184l-3.76832 3.76832L322.99008 494.2848c24.98048 0 42.51136-3.7376 52.56704-11.24352l3.7376 3.7376 11.27424-11.24352 3.7376 7.50592c15.01184-20.07552 22.51776-43.81184 22.51776-71.31648C411.78624 396.70784 406.79936 387.90144 401.81248 385.43872L401.81248 385.43872z"  horiz-adv-x="1024" />

    
    <glyph glyph-name="3701" unicode="&#58925;" d="M930.69312-41.08288l-90.2912-3.74784-90.2656 3.74784c-37.63712 0-97.81248 23.86944-180.55168 71.47008-27.64288 37.61152-57.73312 60.20096-90.2912 67.72224-27.61728-30.11584-51.4304-67.72224-71.47008-112.85504l-37.61152-22.56384-26.3424 7.52128c-10.04544 2.52416-15.04256 8.79616-15.04256 18.7904l-56.42752-48.88064-3.77344 0c-12.57472 17.56672-36.36224 33.83296-71.47008 48.88064-62.69952 42.68544-102.8352 89.06752-120.35072 139.19744 0 9.99424 27.56096 41.38496 82.7392 94.03904 70.1952 67.69664 105.33376 106.55744 105.33376 116.60288l3.74784 37.63712-3.74784 52.65408-94.03904-60.17536c-15.04256 0-30.08512 18.7904-45.1584 56.40192l11.29472 15.07328 41.38496 37.61152c67.69664 42.60864 101.56032 76.4672 101.56032 101.56032l0 37.61152c2.47296 40.07936 12.5184 86.51264 30.08512 139.19744l22.56384 3.74784 11.29472 0c4.99712 0 7.52128-7.52128 7.52128-22.56384-10.04544-22.56384-17.57184-66.47296-22.56384-131.64544l3.74784-3.77344 3.77344 0 7.52128 3.77344c22.56384-7.52128 33.86368-13.824 33.86368-18.816l0-41.38496L313.78944 466.7392l0-90.26048c0-10.07616 12.5184-16.34816 37.61152-18.816l7.52128 7.52128 3.77344-7.52128 0-7.52128c-30.11584-40.13568-45.1584-63.9488-45.1584-71.47008l3.77344-221.93664 7.52128-26.3424 3.74784 0c47.63136 37.61152 82.76992 73.99936 105.33376 109.0816l56.42752 82.76992 11.29472 0 0-15.04256 3.74784-37.61152-3.74784-22.59456c12.5184-7.52128 28.78464-11.26912 48.88064-11.26912l15.07328 0 15.04256 60.17536 0 3.77344 0 7.52128 18.7904 82.7392-3.74784 0c-27.64288-22.56384-47.68256-33.83296-60.20096-33.83296l-3.74784 0-15.04256 15.04256 0 7.52128c0 40.07936 23.78752 82.7392 71.47008 127.8976l30.08512 45.1328 0 7.52128-3.77344 0c-17.57184 0-62.69952-31.39072-135.424-94.03904l-11.26912-7.52128c-25.09312 2.47296-37.61152 16.29184-37.61152 41.38496l124.12416 86.51776c50.1248 30.08512 75.21792 56.42752 75.21792 78.99136l0 26.3424c-37.61152-12.60032-84.0448-40.16128-139.17184-82.76992l-11.29472 0-3.74784 18.816c9.99424 32.55808 31.33952 62.64832 63.9488 90.2656 57.6512 27.56096 91.50976 51.3792 101.56032 71.47008l-7.52128 0c-67.69664-32.6144-111.60576-48.90624-131.64544-48.90624l-15.07328 0 0 7.52128c0 15.07328 51.3792 45.1584 154.24 90.2912l0 48.90624-11.29472 18.816 0 3.74784c0 7.52128 6.2464 13.76768 18.816 18.816 20.03968 0 33.86368-10.04544 41.38496-30.08512l-7.52128-7.54688 7.52128-22.56384 86.51776 3.77344 7.52128-15.04256 0-11.29472c-52.65408-27.61728-86.51776-55.17824-101.56032-82.7392l0-3.77344 45.1328 11.29472 18.816-7.52128c15.04256 0 30.09024-12.60032 45.1328-37.63712 32.55808 0 48.90624-6.272 48.90624-18.7904l0-3.77344c-17.56672-30.08512-53.95456-58.95168-109.0816-86.51776l-7.52128-18.816 0-7.52128 3.74784-11.26912 0-11.29472c0-30.08512-22.56384-69.00224-67.69664-116.60288l-18.816-45.1328 3.77344-7.52128 7.52128 0c0 22.56384 9.99424 33.83296 30.08512 33.83296 30.08512-5.04832 45.1328-18.7904 45.1328-41.38496 0-5.04832-21.34528-26.31168-63.9488-63.9232l-18.7904-7.54688 0-7.52128-3.77344-94.03904c70.1696-27.56096 131.64544-47.60064 184.32512-60.17536 55.12704-9.99424 91.50976-20.03968 109.0816-30.09024l7.52128-37.63712C950.7328-23.51104 945.73568-33.5616 930.69312-41.08288L930.69312-41.08288zM257.36192 222.23872l-3.77344 3.77344-3.74784 0c-35.16416-45.1584-67.72224-81.54624-97.81248-109.1072l0-18.7904c9.99424-27.56096 28.81024-41.38496 56.42752-41.38496l22.56384 0c15.04256 0 22.56384 7.52128 22.56384 22.56384l-3.74784 7.52128 7.52128 71.47008-3.77344 18.82112L257.36192 222.23872 257.36192 222.23872zM716.27776 609.68448l-33.86368 0-11.26912-22.56384 0-22.56384 7.52128 0 48.90624 37.61152L716.27776 609.68448 716.27776 609.68448z"  horiz-adv-x="1024" />

    
    <glyph glyph-name="390101" unicode="&#58926;" d="M854.21056-57.0624c-17.60768 7.53664-47.75936 11.32032-90.45504 11.32032l-214.87104-15.07328L484.80256-60.81536c-15.0784 0-33.93536 17.60768-56.5504 52.76672 0 25.14432 21.30944 49.00864 64.08704 71.62368l52.76672 169.64608-7.53664 116.84864 3.78368 64.08704c12.544 77.85472 35.15904 154.54208 67.84 229.94432-5.06368 17.55136-25.14432 40.1664-60.30336 67.84l-18.85696 26.39872 252.55936 90.48064 0-7.53664 3.78368 7.53664 26.39872 0 15.07328-7.53664 3.75296 0c27.6224-15.07328 41.472-30.17728 41.472-45.25568l-3.78368-11.29472c-10.06592-27.70432-17.60768-44.00128-22.61504-49.00864l0-15.07328c-7.53664-35.24096-23.88992-54.07232-49.00864-56.54528l-131.92704-33.93536c-32.68096-47.75936-49.00864-95.54432-49.00864-143.24736l0-11.29472c10.01472-77.93664 17.55136-125.07136 22.61504-141.36832 5.00736-16.384 11.32032-42.12736 18.85696-77.2864l7.53664-18.85696c0-37.68832-15.0784-92.98432-45.23008-165.8624l0-15.07328 180.93568 33.93536 41.472 0c22.61504-2.47808 40.1664-7.53664 52.76672-15.07328l60.32896-56.5504 0-11.32032C938.37824-39.45472 904.4736-54.53312 854.21056-57.0624L854.21056-57.0624zM232.23808 59.78624l7.53664-7.53664 0-3.75808c0-27.6224-18.85696-45.25568-56.5504-52.79232l-3.78368 3.78368-26.39872-3.78368-3.75296 0c-42.752 17.63328-64.08704 59.07968-64.08704 124.416 52.76672 97.99168 79.16032 192.256 79.16032 282.71104l3.78368 7.53664L160.6144 466.9184 160.6144 519.71072l7.53664 26.368 3.75296 0c25.09312 0 50.23744-65.36704 75.40736-196.01408l0-26.39872 0-86.70208 3.75808 0c27.6224 10.01472 59.02336 55.23968 94.23872 135.71072l3.78368 3.78368 7.53664 0 11.29472-22.64064c-30.15168-52.76672-54.07232-113.07008-71.62368-180.93568C253.54752 115.05664 232.23808 77.42464 232.23808 59.78624L232.23808 59.78624zM296.29952 651.63776l-3.75296 3.78368-26.39872-3.78368-3.75296 0C219.61216 681.78944 186.9824 727.04 164.37248 787.34336l3.78368 7.53664c82.9184-12.60032 138.15808-33.93536 165.8624-64.08704l7.53664-22.61504 0-3.78368C341.55008 679.25504 326.4768 661.65248 296.29952 651.63776L296.29952 651.63776z"  horiz-adv-x="1024" />

    
    <glyph glyph-name="400101" unicode="&#58927;" d="M838.05184-40.88832c-37.69344 0-85.4784-7.53664-143.25248-22.61504-42.7776 0-96.77312 11.29472-162.10944 33.90976-93.01504 45.25568-184.72448 67.87072-275.17952 67.87072-75.40736 0-129.4848-8.79104-162.10944-26.39872l-18.83136 15.0784c7.53664 0 20.08576 13.8496 37.68832 41.472l3.75808 3.75296 18.85696 0c115.57376 12.62592 173.40416 28.928 173.40416 49.01376 0 5.00736-21.39136 20.08576-64.08704 45.25568-15.0784 22.61504-22.61504 46.45376-22.61504 71.62368 2.47808 35.15904 26.3936 76.63104 71.62368 124.3904l0 11.32032c-17.60768 0-41.472 25.09312-71.62368 75.38176l-11.32032 56.5504 3.78368 0c25.09312 0 60.30336-32.68608 105.55904-98.0224l3.75296-18.83136c0-25.17504-21.36064-51.54304-64.08704-79.16544-7.53664-15.07328-11.29472-31.45728-11.29472-49.01376 0-17.60768 35.15904-52.79232 105.53344-105.55904l11.32032-26.39872 0-3.75296-3.75296-37.68832 45.23008 0 162.08384-26.39872 3.78368 3.75296 0 3.78368c0 32.68096-6.31296 49.00864-18.86208 49.00864-22.61504 0-38.99392 25.09312-48.98304 75.38176l7.53664 22.61504 0 15.104-22.64064 79.16544 124.42112 86.70208 0 30.15168-3.78368 22.61504 37.71904 26.39872 7.53664-3.78368 0-18.83136c-5.08928-10.07104-8.84736-23.92064-11.32032-41.472 0-10.07104 11.32032-18.85696 33.93536-26.39872l0-7.53664-30.15168-41.472 11.29472-41.4464 0-7.56736c-12.60032-25.14432-25.14432-37.68832-37.68832-37.68832l-7.53664-86.70208 0-18.85696 11.29472-7.53664 18.85696 0c60.30336 0 90.48576 15.104 90.48576 45.25568l3.75296 18.83136-3.75296 7.53664 3.75296 22.64064 0 86.70208 11.32032 147.00544c0 27.6224-28.928 41.472-86.70208 41.472-47.78496 0-100.55168-49.01376-158.32576-147.03616-15.104-22.61504-31.45728-96.77312-49.01376-222.4128l-30.17728-26.368L412.0576 109.9008l-3.75296 37.68832 3.75296 0-3.75296 7.53664 0 33.93536c45.23008 153.2672 71.62368 229.95456 79.16544 229.95456 0 12.544 15.0784 49.01376 45.23008 109.31712l-22.61504 7.53664c0-7.53664-3.75296-11.29472-11.32032-11.29472-22.61504 5.00736-33.90976 11.29472-33.90976 18.83136 10.01472 67.87072 41.472 101.77536 94.23872 101.77536 30.15168 25.11872 45.23008 40.192 45.23008 45.25568l-7.53664 0-37.68832-15.0784-45.23008-15.0784-3.78368-3.78368-3.75296 0L487.4752 656.49664c-52.76672 45.23008-81.69472 72.85248-86.70208 82.94912l15.07328 7.53664 11.29472-3.78368c50.26304 10.01472 87.95136 23.86432 113.1008 41.472 52.79232 17.55136 91.70944 33.93536 116.88448 49.00864l3.75296-3.78368 3.78368 3.78368 3.75808 0c55.2448-12.60032 82.944-25.14432 82.944-37.68832l0-3.78368c-10.07104-57.856-26.39872-86.70208-49.01376-86.70208l-26.39872-37.68832 26.39872-22.64064 0-11.29472c-10.07104-12.60032-16.384-25.14432-18.85696-37.68832-45.23008 0-86.70208-36.46464-124.3904-109.34272 50.23744 35.18464 89.18016 52.79232 116.85376 52.79232l22.61504 0c70.3488-7.53664 105.55904-20.16768 105.55904-37.71904l0-30.15168-18.86208-158.32576 0-131.93216 3.78368-7.53664c0-45.25568-17.60768-72.87808-52.76672-82.94912L626.944 91.02848l-3.75296 7.53664-7.53664 0-3.78368-7.53664 0-26.39872 11.32032-11.29472 60.30336 0 37.71904-3.78368 15.07328 3.78368 0-3.78368 3.75296 3.78368 154.5728-11.32032 30.15168 3.78368c15.0784-5.00736 22.61504-13.7984 22.61504-26.39872C919.69024-20.75136 883.28192-40.88832 838.05184-40.88832L838.05184-40.88832zM551.54688 283.30496l0-3.78368c30.15168 22.64064 45.23008 38.94272 45.23008 49.00864C566.62528 305.92 551.54688 290.8416 551.54688 283.30496L551.54688 283.30496z"  horiz-adv-x="1024" />

    
    <glyph glyph-name="410101" unicode="&#58928;" d="M957.64992 25.74336l-37.69344-56.51456-48.98304-15.06816-67.79904-3.77856-41.4464 15.06816c-70.33344 22.59968-140.68736 76.64128-210.96448 162.00704-60.29312 82.8672-89.18016 136.85248-86.65088 162.01216l7.53152 0c55.20896-72.88832 102.9376-111.80544 143.16032-116.80768 45.19936-35.19488 87.87456-56.51456 128.09728-64.04608l37.66784 0 3.75296 3.77856 64.04608-7.53152 7.53664-3.77856 3.77856 3.77856 3.75296 0C931.27168 94.848 962.65216 68.46976 957.64992 25.74336L957.64992 25.74336zM656.2304 458.9824c-123.06432-12.59008-185.88672-23.90528-188.3648-33.91488-37.66784-130.59584-79.11424-233.56416-124.3136-308.92544-95.488-125.53728-170.81856-185.83552-226.05824-180.82816l-30.1312 41.4464 0 15.06816c100.43392 80.41984 159.47776 130.57024 177.0752 150.69696 70.27712 118.03136 111.72352 205.90592 124.3136 263.72608l0 7.53152-11.28448 3.75296c-92.95872-47.72864-146.944-71.58272-162.00704-71.58272l3.75296 15.09376c0 27.60192 55.23456 87.86944 165.79072 180.82816 17.54112 22.59968 77.80864 76.58496 180.82816 161.98144l11.28448 15.09376 0 11.28448-7.53152 0-22.59968 0 0 3.77856-3.75296-3.77856-3.77856 0-7.53152 3.77856-3.75296 0c0-7.53152-42.752-11.3152-128.09728-11.3152-32.6912 17.54112-50.28864 30.13632-52.7616 37.66784l0 15.06816 109.27616 33.91488c62.74048 12.53888 110.46912 17.54112 143.16032 15.06816l15.06816 0c52.736-7.53152 77.80864-23.90528 75.33568-48.98304-2.52928-35.19488-48.98304-70.32832-139.38176-105.46688-2.52928-10.0608-10.06592-15.06816-22.59968-15.06816l0-15.09376 22.59968-3.75296c15.06816-2.52928 31.35488-17.59744 48.98304-45.19936l56.48896-33.91488 15.09376 0 22.59968 3.75296c40.1408-7.53152 58.98752-20.12672 56.51456-37.66784l0-15.06816c-42.752-35.19488-74.112-52.736-94.208-52.736l0 3.7632L656.2304 458.9824zM268.19072 402.46784c100.43904 32.60928 151.94624 60.29312 154.47552 82.8928 0 15.06816 16.29184 55.20896 48.98304 120.56064C338.49344 502.90688 270.66368 435.07712 268.19072 402.46784L268.19072 402.46784zM603.49952 534.34368c0 10.0096-22.59968 25.07776-67.79904 45.19936l0-3.75296c-20.15232-35.22048-31.44192-62.8224-33.91488-82.8928l101.71392 30.1312L603.49952 534.34368 603.49952 534.34368z"  horiz-adv-x="1024" />

    
    <glyph glyph-name="420101" unicode="&#58929;" d="M896.31744 270.8736c-114.14528 0-171.17696 24.77056-171.17696 74.41408-12.4672 44.67712-24.84736 71.94112-37.23264 81.88416l29.76768 7.43936c86.82496 0 163.7632-35.99872 230.7328-107.91424l0-11.17696L896.31744 270.8736 896.31744 270.8736zM464.63488 445.78304l-11.17696-22.3488 55.82336-215.82848 0-22.3232-18.61632-89.32352 7.43936-70.7072c-27.32032-47.09376-47.14496-70.7072-59.53024-70.7072l-40.93952 0c-12.43648 109.20448-7.43936 187.29984 14.88384 234.4448l3.7376 26.05568c-22.3232 79.35488-33.50016 141.4144-33.50016 186.0608 0 52.11648 31.0016 124.032 93.0304 215.85408l-11.15136 0c-111.64672-22.3232-189.7984-33.50016-234.4448-33.50016C128.43008 588.40064 77.60384 616.96 77.60384 669.05088l11.17696 3.73248 22.3232-11.17696c124.032 17.32608 320.03584 68.20864 587.97568 152.58624l26.05568 0c106.624 0 160.00512-29.79328 160.00512-89.32352l-230.71232-66.97472C577.48992 628.11136 514.2272 557.40416 464.63488 445.78304L464.63488 445.78304z"  horiz-adv-x="1024" />

    
    <glyph glyph-name="wenjianjia" unicode="&#59626;" d="M974.498074 574.637852c-8.572236 11.17041-21.563108 17.576307-35.642778 17.576307l-91.813079 0 0 40.021505c0 26.010397-21.161972 47.171346-47.172369 47.171346l-433.165514 0c-2.185782 0-4.241604 0.851391-5.786797 2.396583l-58.488089 58.488089c-8.909927 8.909927-20.75572 13.817704-33.356712 13.817704L87.405187 754.109386c-26.010397 0-47.171346-21.161972-47.171346-47.172369l0-645.87608c0-26.010397 21.160949-47.172369 47.171346-47.172369l0 0.332575c1.798972-0.215918 3.623527-0.332575 5.467525-0.332575l715.097628 0c20.298302 0 38.142715 13.69286 43.396369 33.298384l130.884956 488.470097C985.895659 549.259858 983.069287 563.466418 974.498074 574.637852zM87.405187 715.122443l181.668573 0c2.185782 0 4.241604-0.851391 5.786797-2.397606l58.489112-58.490136c8.909927-8.908904 20.75572-13.814634 33.354666-13.814634l433.165514 0c4.51278 0 8.184403-3.671623 8.184403-8.184403l0-40.021505-584.297606 0c-20.297278 0-38.142715-13.69286-43.396369-33.299407L79.220784 181.454958 79.220784 706.93804C79.220784 711.45082 82.892407 715.122443 87.405187 715.122443zM944.591951 545.749918 813.705971 57.27982c-0.693802-2.592035-3.052522-4.402263-5.735631-4.402263L92.872712 52.877557c-2.548032 0-4.046153 1.456165-4.711302 2.323928-0.666172 0.868787-1.684362 2.691295-1.02433 5.15337l130.884956 488.469074c0.694825 2.592035 3.053546 4.402263 5.736655 4.402263l715.097628 0c2.548032 0 4.045129-1.455141 4.711302-2.323928C944.23277 550.034501 945.251983 548.210969 944.591951 545.749918z"  horiz-adv-x="1024" />

    
    <glyph glyph-name="460101" unicode="&#58931;" d="M339.03616 346.97216l365.73184 188.65152L401.2032 309.6064l238.63808-148.9408 268.65152 500.85376L115.5072 484.75136 339.03616 346.97216 339.03616 346.97216zM345.29792 122.58816l116.1728 100.00896-79.04768 47.1296L345.29792 122.58816 345.29792 122.58816z"  horiz-adv-x="1024" />

    
    <glyph glyph-name="470101" unicode="&#58932;" d="M311.51104 92.57472c-113.35168 0-205.51168 92.16512-205.51168 205.51168 0 113.31072 92.16512 205.47584 205.51168 205.47584 113.35168 0 205.51168-92.16512 205.51168-205.47584C517.02272 184.73984 424.8576 92.57472 311.51104 92.57472L311.51104 92.57472zM408.24832 259.88608 333.10208 259.88608l0 38.20032 75.14624 0 0 25.3184L345.5744 323.4048l62.26432 89.24672-49.82784 0-49.82784-89.24672L258.3552 412.65152l-37.3504 0 49.82784-89.24672-49.82784 0 0-25.3184 75.14624 0 0-38.60992L221.0048 259.47648l0-25.35424 74.74176 0 0-50.64192 37.3504 0 0 51.08224 75.14624 0L408.24832 259.88608 408.24832 259.88608zM868.21888 182.81984 509.12256 182.81984c10.48064 18.16064 18.56512 37.83168 23.91552 58.61376l335.17568 0c16.2048 0 29.30688-13.10208 29.30688-29.30688C897.52064 195.96288 884.41856 182.81984 868.21888 182.81984L868.21888 182.81984zM868.21888 270.74048 538.7264 270.74048c1.21856 9.63584 2.02752 19.3792 2.02752 29.30688 0 9.96352-0.81408 19.67104-2.02752 29.30688l329.49248 0c16.2048 0 29.30688-13.10208 29.30688-29.30688C897.52064 283.8784 884.41856 270.74048 868.21888 270.74048L868.21888 270.74048zM868.21888 358.656 533.0432 358.656c-5.3504 20.81792-13.43488 40.48896-23.91552 58.61376l359.09632 0c16.2048 0 29.30688-13.10208 29.30688-29.30688C897.52064 371.79904 884.41856 358.656 868.21888 358.656L868.21888 358.656zM868.21888 446.57664 489.11872 446.57664c-19.08224 23.77216-42.62912 43.74016-69.49888 58.61376l448.59904 0c16.2048 0 29.30688-13.10208 29.30688-29.30688C897.52064 459.71456 884.41856 446.57664 868.21888 446.57664L868.21888 446.57664zM868.21888 534.49728l-469.1968 0c-16.2048 0-29.34272 13.13792-29.34272 29.30688 0 16.2048 13.13792 29.30688 29.34272 29.30688l469.1968 0c16.2048 0 29.30688-13.10208 29.30688-29.30688C897.52064 547.6352 884.41856 534.49728 868.21888 534.49728L868.21888 534.49728zM868.21888 622.4128l-469.1968 0c-16.2048 0-29.34272 13.13792-29.34272 29.30688 0 16.2048 13.13792 29.30688 29.34272 29.30688l469.1968 0c16.2048 0 29.30688-13.10208 29.30688-29.30688C897.52064 635.55584 884.41856 622.4128 868.21888 622.4128L868.21888 622.4128zM489.11872 153.51296l379.10016 0c16.2048 0 29.30688-13.10208 29.30688-29.30688 0-16.16384-13.10208-29.30688-29.30688-29.30688l-448.5632 0C446.4896 109.77792 470.03648 129.74592 489.11872 153.51296L489.11872 153.51296z"  horiz-adv-x="1024" />

    
    <glyph glyph-name="password" unicode="&#59031;" d="M539.92 637.032c-78.247 77.619-204.798 77.131-282.418-1.117-77.689-78.318-77.131-204.799 1.117-282.419 61.634-61.147 152.795-73.013 226.855-37.553l55.911-55.492 94.163 0.35 0.348-94.163 94.163 0.348 0.348-94.163 94.163 0.35-0.348 94.163-245.004 243.049c34.97 74.408 22.336 165.5-39.299 226.646zM399.27 495.264c-29.107-29.317-76.502-29.596-105.889-0.419-29.386 29.177-29.526 76.573-0.419 105.889 29.107 29.317 76.502 29.596 105.889 0.419 29.387-29.177 29.526-76.573 0.419-105.89z"  horiz-adv-x="1024" />

    
    <glyph glyph-name="4801" unicode="&#58933;" d="M867.10784 129.5104l0-41.10336c0-22.76864-95.88736-50.18624-287.63648-82.176l-191.77472 54.784-82.20672-13.68064-41.07776 27.392c0 54.784 31.93344 82.176 95.88736 82.176l41.07264 0 0 13.71136-27.392 82.176 41.10336 0c22.79424-82.176 59.32544-123.27936 109.568-123.27936l13.71136 0 0 41.10336c0 102.74304 18.2528 216.8576 54.784 342.44608L456.192 430.85312l-13.71136 13.71136 0 54.784 136.99072 164.38272 0 27.392-41.10336 54.784 41.10336 41.10336 13.68064 0 68.49536-54.784 54.784 13.68064L647.936 567.84384l41.10336 27.392 13.71136 0 27.392-27.392 13.68576-397.23008-13.68576-13.71136 0-13.68064L867.10784 129.5104 867.10784 129.5104zM579.47136 595.23584 565.76 595.23584c-36.5312-18.30912-54.784-45.70112-54.784-82.176l27.392 0 41.10336 68.49536L579.47136 595.23584 579.47136 595.23584zM579.47136 129.5104l13.68064-13.68064 54.784 13.68064 0 13.71136-54.784 41.07264L579.47136 129.5104 579.47136 129.5104zM675.35872 704.83456l0 13.68576c-13.71136 0-27.4176-18.30912-41.10336-54.784l0-13.71136 13.68064 0L675.35872 704.83456 675.35872 704.83456zM689.03936 540.45184l-41.10336 0-27.392-95.88736 13.71136 0c27.392 0 41.10336-9.1392 41.10336-27.392-27.4176-9.1392-41.10336-36.5568-41.10336-82.176l27.392 0 0-27.4176-27.392-27.392-13.71136 13.71136-13.68064 0 0-54.784c9.088-27.392 36.48-41.10336 82.176-41.10336l13.71136 0L689.03936 540.45184 689.03936 540.45184zM428.8 307.57376l-27.42272 27.4176 0 13.68576 27.42272 27.392 27.392-41.07776L428.8 307.57376 428.8 307.57376zM332.91264 444.56448c0-38.84544-22.85056-89.03168-68.49536-150.67136l13.68064-82.176c-25.13408-91.2896-43.38688-136.99072-54.784-136.99072l-27.392 0-27.392 27.392 0 54.784 41.10336 191.77472L154.81856 513.05984l13.71136 13.68064 27.392 0c18.2528 0 27.392-18.2784 27.392-54.784l54.784-27.392-13.68064 95.88736 0 54.784c-61.63968 0-98.2016 18.2528-109.59872 54.784l0 13.71136c0 18.2528 22.79424 27.392 68.49536 27.392l68.49536 54.784 54.784 0c27.392 0 41.10336-18.2784 41.10336-54.784L319.20128 595.23584 332.91264 444.56448 332.91264 444.56448z"  horiz-adv-x="1024" />

    
    <glyph glyph-name="490101" unicode="&#58934;" d="M760.51456 492.57984l10.27072 10.27072 0 23.97696-58.19904 13.68064-23.97696 0-20.53632-23.95136 0-23.97696 20.53632-27.392 23.97696 0 34.22208 27.392L760.51456 492.57984l-23.97696-37.66272 10.27072-13.71136 13.71136 13.71136 34.24768 0c45.6448-36.56192 68.49536-69.67808 68.49536-99.328-54.81472-107.3408-150.67136-160.94208-287.66208-160.94208l-47.93344 0c-184.94464 66.18112-277.39136 152.92928-277.39136 260.27008l-10.27072 10.27072 34.24768 37.66272 20.53632 0c15.93856 0 39.92064-33.11616 71.9104-99.3024 66.18112-41.10336 123.27936-65.08032 171.2384-71.936l150.67136 37.68832c0 15.93856-42.28608 39.92064-126.72 71.9104L493.4144 417.2288c-34.24768 13.71136-61.63968 38.78912-82.20672 75.35104l0 47.92832c0 20.56192 35.3792 41.10336 106.15808 61.63968l126.72-13.68064 208.90112 37.66272c45.6192-9.1392 68.46976-29.70624 68.46976-61.63968C921.45664 532.50048 867.79904 508.5184 760.51456 492.57984L760.51456 492.57984zM342.71744 232.30976l0-10.27072c-18.2784-36.5312-45.6704-61.63968-82.176-75.35104-107.3408 43.36128-160.94208 108.416-160.94208 195.21536l34.24768 27.392 23.95136 0 34.24768-61.63968 0-13.71136 102.74304 0L342.71744 232.30976 342.71744 232.30976z"  horiz-adv-x="1024" />

    
    </font>
</defs>
</svg>
